<?xml version="1.0" encoding="utf-8"?>
<!-- Generator: Adobe Illustrator 19.2.1, SVG Export Plug-In . SVG Version: 6.00 Build 0)  -->
<svg version="1.1" id="Capa_1" xmlns="http://www.w3.org/2000/svg" xmlns:xlink="http://www.w3.org/1999/xlink" x="0px" y="0px"
	 viewBox="0 0 500 500" style="enable-background:new 0 0 500 500;" xml:space="preserve">
<style type="text/css">
	.st0{fill:#FFFFFF;}
</style>
<g>
	<path class="st0" d="M415.8,318.7H85.4c-4.7,0-8.5-3.8-8.5-8.5V72.3c0-4.7,3.8-8.5,8.5-8.5h330.4c4.7,0,8.5,3.8,8.5,8.5v237.8
		C424.3,314.8,420.5,318.7,415.8,318.7z M85.4,68.8c-2,0-3.5,1.6-3.5,3.5v237.8c0,2,1.6,3.5,3.5,3.5h330.4c2,0,3.5-1.6,3.5-3.5V72.3
		c0-2-1.6-3.5-3.5-3.5H85.4z"/>
	<rect x="204" y="66.2" class="st0" width="5" height="249.9"/>
	<rect x="206.5" y="231.8" class="st0" width="215.3" height="5"/>
	<path class="st0" d="M143.4,151.3c-18.8,0-34.1-15.3-34.1-34.1S124.6,83,143.4,83s34.1,15.3,34.1,34.1S162.3,151.3,143.4,151.3z
		 M143.4,86c-17.2,0-31.1,14-31.1,31.1s14,31.1,31.1,31.1s31.1-14,31.1-31.1S160.6,86,143.4,86z"/>
	<path class="st0" d="M143.4,302.9c-18.8,0-34.1-15.3-34.1-34.1s15.3-34.1,34.1-34.1s34.1,15.3,34.1,34.1S162.3,302.9,143.4,302.9z
		 M143.4,237.6c-17.2,0-31.1,14-31.1,31.1s14,31.1,31.1,31.1s31.1-14,31.1-31.1S160.6,237.6,143.4,237.6z"/>
	<path class="st0" d="M143.4,192.7c-10,0-18.1-8.1-18.1-18.1c0-10,8.1-18.1,18.1-18.1s18.1,8.1,18.1,18.1
		C161.5,184.6,153.4,192.7,143.4,192.7z M143.4,159.6c-8.3,0-15.1,6.8-15.1,15.1s6.8,15.1,15.1,15.1s15.1-6.8,15.1-15.1
		S151.7,159.6,143.4,159.6z"/>
	<path class="st0" d="M143.4,233.3c-10,0-18.1-8.1-18.1-18.1c0-10,8.1-18.1,18.1-18.1s18.1,8.1,18.1,18.1
		C161.5,225.2,153.4,233.3,143.4,233.3z M143.4,200.1c-8.3,0-15.1,6.8-15.1,15.1s6.8,15.1,15.1,15.1s15.1-6.8,15.1-15.1
		S151.7,200.1,143.4,200.1z"/>
	<path class="st0" d="M226.5,220.8c-5.7,0-10.2-6.6-10.2-15s4.5-15,10.2-15s10.2,6.6,10.2,15S232.2,220.8,226.5,220.8z M226.5,193.8
		c-3.9,0-7.2,5.5-7.2,12s3.3,12,7.2,12s7.2-5.5,7.2-12S230.4,193.8,226.5,193.8z"/>
	<path class="st0" d="M330,220.8c-5.7,0-10.2-6.6-10.2-15s4.5-15,10.2-15s10.2,6.6,10.2,15S335.7,220.8,330,220.8z M330,193.8
		c-3.9,0-7.2,5.5-7.2,12s3.3,12,7.2,12s7.2-5.5,7.2-12S333.9,193.8,330,193.8z"/>
	<rect x="226.5" y="190.8" class="st0" width="103.5" height="3"/>
	<rect x="226.5" y="217.8" class="st0" width="103.5" height="3"/>
	<path class="st0" d="M231.7,301.5c-2,0-4.2-0.2-6.6-0.8c-1.2-0.3-2.2-1-2.7-2.1c-0.6-1.1-0.6-2.5-0.1-3.7c0.5-1.1,0.6-2.2,0.3-3.4
		l0-0.3c0-0.1-0.1-11.4,15.2-12.9c0.7-3.1,3.3-11.1,12.8-13.4c0.9-3.2,4.8-13.5,15.3-14.5c0.1,0,0.5-0.1,0.9-0.4
		c0.9-0.7,2.1-1,3.3-0.7c1.1,0.3,2,1.1,2.5,2.1c2.4,5.4,4.6,15.6-6.9,23.9c-1.5,6-6.8,16.1-16.8,15.7
		C246.9,295.5,241.7,301.5,231.7,301.5z M225.5,291.1c0.4,1.7,0.2,3.4-0.5,5c-0.2,0.4-0.1,0.8,0,1.1c0.1,0.2,0.3,0.5,0.7,0.6
		c16.5,3.7,20.4-8.2,20.5-8.8l0.4-1.2l1.2,0.1c4.6,0.5,8.5-1.5,11.6-6.2c2.4-3.7,3.3-7.6,3.3-7.6l0.1-0.6l0.5-0.3
		c9.7-6.7,8.8-14.9,6.3-20.6c-0.1-0.3-0.3-0.4-0.5-0.4c-0.2-0.1-0.5,0-0.7,0.2c-1,0.8-2.2,1-2.3,1c-10.4,0.9-13,13-13,13.1l-0.2,1
		l-1,0.2c-10.5,2-11.5,12.1-11.5,12.2l-0.1,1.3l-1.3,0.1C226.3,282.1,225.5,289.9,225.5,291.1z"/>
	<path class="st0" d="M233.6,296.6c-1.6,0-3.1-0.6-4-1.7c-1.1-1.2-1.6-3-1.2-4.9c0.3-1.7,1.3-3.5,2.8-4.8c3.2-2.9,7.5-3.3,9.8-0.8
		l0,0c2.3,2.5,1.6,6.8-1.6,9.7c-1.5,1.3-3.2,2.2-5,2.4C234.1,296.6,233.9,296.6,233.6,296.6z M236.9,285.8c-1.2,0-2.6,0.6-3.8,1.7
		c-1,0.9-1.7,2.1-1.9,3.2c-0.1,0.6-0.2,1.6,0.5,2.3c0.7,0.7,1.7,0.7,2.3,0.7c1.1-0.1,2.3-0.7,3.3-1.6c1.9-1.7,2.5-4.3,1.4-5.5
		C238.3,286,237.7,285.8,236.9,285.8z"/>
	<path class="st0" d="M248.9,285.5c-1.6,0-3-0.6-4-1.7c-1.1-1.2-1.6-3-1.2-4.9c0.3-1.7,1.3-3.5,2.8-4.8c3.2-2.9,7.5-3.3,9.8-0.8l0,0
		c2.3,2.5,1.6,6.8-1.6,9.7C252.9,284.7,250.8,285.5,248.9,285.5z M252.2,274.6c-1.2,0-2.6,0.6-3.8,1.7c-1,0.9-1.7,2.1-1.9,3.2
		c-0.1,0.6-0.2,1.6,0.5,2.3c1.1,1.2,3.7,0.8,5.6-1c1.9-1.7,2.5-4.3,1.4-5.5C253.6,274.9,253,274.6,252.2,274.6z"/>
	<path class="st0" d="M261.4,270.7c-0.9,0-1.8-0.2-2.6-0.7c-1.5-0.8-2.4-2.4-2.6-4.3c-0.2-1.8,0.2-3.7,1.2-5.4
		c2.2-3.8,6.2-5.4,9.1-3.7v0c3,1.7,3.6,6,1.4,9.8C266.3,269.1,263.8,270.7,261.4,270.7z M264,259c-1.4,0-3,1.1-4,2.8
		c-0.7,1.2-1,2.5-0.9,3.6c0.1,0.6,0.3,1.6,1.2,2.1c1.4,0.8,3.8-0.3,5-2.6c1.3-2.2,1.1-4.8-0.3-5.7v0C264.7,259.1,264.4,259,264,259z
		"/>
	<path class="st0" d="M286.5,301.5c-2,0-4.2-0.2-6.6-0.8c-1.2-0.3-2.2-1-2.7-2.1c-0.6-1.1-0.6-2.5-0.1-3.7c0.5-1.1,0.6-2.2,0.3-3.4
		l0-0.3c0-0.1-0.1-11.4,15.2-12.9c0.7-3.1,3.3-11.1,12.8-13.4c0.9-3.2,4.8-13.5,15.3-14.5c0.1,0,0.5-0.1,0.9-0.4
		c0.9-0.7,2.1-1,3.3-0.7c1.1,0.3,2,1.1,2.5,2.1c2.4,5.4,4.6,15.6-6.9,23.9c-1.5,6-6.8,16.1-16.8,15.7
		C301.8,295.5,296.5,301.5,286.5,301.5z M280.3,291.1c0.4,1.7,0.2,3.4-0.5,5c-0.2,0.4-0.1,0.8,0,1.1c0.1,0.2,0.3,0.5,0.7,0.6
		c16.5,3.7,20.4-8.2,20.5-8.8l0.4-1.2l1.2,0.1c4.6,0.5,8.5-1.5,11.6-6.2c2.4-3.7,3.3-7.6,3.3-7.6l0.1-0.6l0.5-0.3
		c9.7-6.7,8.8-14.9,6.3-20.6c-0.1-0.3-0.3-0.4-0.5-0.4c-0.2-0.1-0.5,0-0.7,0.2c-1,0.8-2.2,1-2.3,1c-10.4,0.9-13,13-13,13.1l-0.2,1
		l-1,0.2c-10.5,2-11.5,12.1-11.5,12.2l-0.1,1.3l-1.3,0.1C281.1,282.1,280.4,289.9,280.3,291.1z"/>
	<path class="st0" d="M288.4,296.6c-1.6,0-3.1-0.6-4-1.7c-1.1-1.2-1.6-3-1.2-4.9c0.3-1.7,1.3-3.5,2.8-4.8c3.2-2.9,7.5-3.3,9.8-0.8
		l0,0c2.3,2.5,1.6,6.8-1.6,9.7c-1.5,1.3-3.2,2.2-5,2.4C289,296.6,288.7,296.6,288.4,296.6z M291.8,285.8c-1.2,0-2.6,0.6-3.8,1.7
		c-1,0.9-1.7,2.1-1.9,3.2c-0.1,0.6-0.2,1.6,0.5,2.3c0.7,0.7,1.7,0.7,2.3,0.7c1.1-0.1,2.3-0.7,3.3-1.6c1.9-1.7,2.5-4.3,1.4-5.5
		C293.1,286,292.5,285.8,291.8,285.8z"/>
	<path class="st0" d="M303.7,285.5c-1.6,0-3.1-0.6-4-1.7c-1.1-1.2-1.6-3-1.2-4.9c0.3-1.7,1.3-3.5,2.8-4.8c3.2-2.9,7.5-3.3,9.8-0.8
		l0,0c2.3,2.5,1.6,6.8-1.6,9.7c-1.5,1.3-3.2,2.2-5,2.4C304.2,285.5,304,285.5,303.7,285.5z M307.1,274.6c-1.2,0-2.6,0.6-3.8,1.7
		c-1,0.9-1.7,2.1-1.9,3.2c-0.1,0.6-0.2,1.6,0.5,2.3c0.7,0.7,1.7,0.7,2.3,0.7c1.1-0.1,2.3-0.7,3.3-1.6c1.9-1.7,2.5-4.3,1.4-5.5
		C308.4,274.9,307.8,274.6,307.1,274.6z"/>
	<path class="st0" d="M316.2,270.7c-0.9,0-1.8-0.2-2.6-0.7c-1.5-0.8-2.4-2.4-2.6-4.3c-0.2-1.8,0.2-3.7,1.2-5.4
		c2.2-3.8,6.2-5.4,9.1-3.7v0c3,1.7,3.6,6,1.4,9.8C321.2,269.1,318.6,270.7,316.2,270.7z M318.8,259c-1.4,0-3,1.1-4,2.8
		c-0.7,1.2-1,2.5-0.9,3.6c0.1,0.6,0.3,1.6,1.2,2.1c1.4,0.8,3.8-0.3,5-2.6c1.3-2.2,1.1-4.8-0.3-5.7v0
		C319.6,259.1,319.2,259,318.8,259z"/>
	<path class="st0" d="M341.4,301.5c-2,0-4.2-0.2-6.6-0.8c-1.2-0.3-2.2-1-2.7-2.1c-0.6-1.1-0.6-2.5-0.1-3.7c0.5-1.1,0.6-2.2,0.3-3.4
		l0-0.3c0-0.1-0.1-11.4,15.2-12.9c0.7-3.1,3.3-11.1,12.8-13.4c0.9-3.2,4.8-13.5,15.3-14.5c0.1,0,0.5-0.1,0.9-0.4
		c0.9-0.7,2.1-1,3.3-0.7c1.1,0.3,2,1.1,2.5,2.1c2.4,5.4,4.6,15.6-6.9,23.9c-1.5,6-6.8,16.1-16.8,15.7
		C356.6,295.5,351.4,301.5,341.4,301.5z M335.2,291.1c0.4,1.7,0.2,3.4-0.5,5c-0.2,0.4-0.1,0.8,0,1.1c0.1,0.2,0.3,0.5,0.7,0.6
		c16.5,3.7,20.4-8.2,20.5-8.8l0.4-1.2l1.2,0.1c4.6,0.5,8.5-1.5,11.6-6.2c2.4-3.7,3.3-7.6,3.3-7.6l0.1-0.6l0.5-0.3
		c9.7-6.7,8.8-14.9,6.3-20.6c-0.1-0.3-0.3-0.4-0.5-0.4c-0.2-0.1-0.5,0-0.7,0.2c-1,0.8-2.2,1-2.3,1c-10.4,0.9-13,13-13,13.1l-0.2,1
		l-1,0.2c-10.5,2-11.5,12.1-11.5,12.2l-0.1,1.3l-1.3,0.1C336,282.1,335.2,289.9,335.2,291.1z"/>
	<path class="st0" d="M343.3,296.6c-1.6,0-3.1-0.6-4-1.7c-1.1-1.2-1.6-3-1.2-4.9c0.3-1.7,1.3-3.5,2.8-4.8c3.2-2.9,7.5-3.3,9.8-0.8
		l0,0c2.3,2.5,1.6,6.8-1.6,9.7c-1.5,1.3-3.2,2.2-5,2.4C343.8,296.6,343.5,296.6,343.3,296.6z M346.6,285.8c-1.2,0-2.6,0.6-3.8,1.7
		c-1,0.9-1.7,2.1-1.9,3.2c-0.1,0.6-0.2,1.6,0.5,2.3c0.7,0.7,1.7,0.7,2.3,0.7c1.1-0.1,2.3-0.7,3.3-1.6c1.9-1.7,2.5-4.3,1.4-5.5
		C348,286,347.3,285.8,346.6,285.8z"/>
	<path class="st0" d="M358.6,285.5c-1.6,0-3-0.6-4-1.7c-1.1-1.2-1.6-3-1.2-4.9c0.3-1.7,1.3-3.5,2.8-4.8c3.2-2.9,7.5-3.3,9.8-0.8l0,0
		c2.3,2.5,1.6,6.8-1.6,9.7C362.6,284.7,360.5,285.5,358.6,285.5z M361.9,274.6c-1.2,0-2.6,0.6-3.8,1.7c-1,0.9-1.7,2.1-1.9,3.2
		c-0.1,0.6-0.2,1.6,0.5,2.3c1.1,1.2,3.7,0.8,5.6-1c1.9-1.7,2.5-4.3,1.4-5.5C363.3,274.9,362.6,274.6,361.9,274.6z"/>
	<path class="st0" d="M371,270.7c-0.9,0-1.8-0.2-2.6-0.7c-1.5-0.8-2.4-2.4-2.6-4.3c-0.2-1.8,0.2-3.7,1.2-5.4
		c2.2-3.8,6.2-5.4,9.1-3.7v0c3,1.7,3.6,6,1.4,9.8C376,269.1,373.5,270.7,371,270.7z M373.7,259c-1.4,0-3,1.1-4,2.8
		c-0.7,1.2-1,2.5-0.9,3.6c0.1,0.6,0.3,1.6,1.2,2.1c1.4,0.8,3.8-0.3,5-2.6c1.3-2.2,1.1-4.8-0.3-5.7v0C374.4,259.1,374,259,373.7,259z
		"/>
	<path class="st0" d="M248.1,357.5c-23.8,0-49-4.9-49-14s25.2-14,49-14s49,4.9,49,14S271.9,357.5,248.1,357.5z M248.1,332.5
		c-12.6,0-24.4,1.3-33.2,3.6c-9.4,2.5-12.8,5.4-12.8,7.4s3.4,4.9,12.8,7.4c8.9,2.3,20.6,3.6,33.2,3.6s24.4-1.3,33.2-3.6
		c9.4-2.5,12.8-5.4,12.8-7.4s-3.4-4.9-12.8-7.4C272.5,333.8,260.7,332.5,248.1,332.5z"/>
	<path class="st0" d="M279.5,431.8h-68.3l-0.2-1.3c-3.1-23.4-11.4-84.6-11.8-86.7l2.9-0.7c0.4,1.7,9.5,68.9,11.7,85.7H277l17.1-85.6
		l2.9,0.6L279.5,431.8z"/>
	<circle class="st0" cx="248.1" cy="393.1" r="21.8"/>
	<path class="st0" d="M308.8,161.5c-7.3,0-13.2,5.9-13.2,13.2s5.9,13.2,13.2,13.2s13.2-5.9,13.2-13.2S316.1,161.5,308.8,161.5z
		 M310.6,182.1h-2.9v-10.3h0l-2.5,1.2l-0.5-2.3l3.4-1.6h2.5V182.1z"/>
	<path class="st0" d="M361.6,192.7c-7.3,0-13.2,5.9-13.2,13.2c0,7.3,5.9,13.2,13.2,13.2s13.2-5.9,13.2-13.2
		C374.7,198.6,368.8,192.7,361.6,192.7z M365.8,212.3h-9.2v-1.8l1.7-1.5c2.8-2.5,4.2-4,4.3-5.5c0-1.1-0.6-1.9-2.1-1.9
		c-1.1,0-2.1,0.6-2.8,1.1l-0.9-2.2c1-0.7,2.5-1.3,4.3-1.3c2.9,0,4.6,1.7,4.6,4.1c0,2.2-1.6,3.9-3.5,5.6l-1.2,1v0h4.9V212.3z"/>
	<g>
		<path class="st0" d="M179.6,228.5l-1.7,2.8v0h2.9v-2.9c0-0.8,0-1.6,0.1-2.4h-0.1C180.3,226.9,180,227.7,179.6,228.5z"/>
		<path class="st0" d="M180.4,217.1c-7.3,0-13.2,5.9-13.2,13.2c0,7.3,5.9,13.2,13.2,13.2s13.2-5.9,13.2-13.2
			C193.5,223,187.6,217.1,180.4,217.1z M185.2,233.7h-1.6v3.1h-2.9v-3.1H175v-2l4.9-7.9h3.7v7.6h1.6V233.7z"/>
	</g>
	<path class="st0" d="M305.4,409.3c-7.3,0-13.2,5.9-13.2,13.2c0,7.3,5.9,13.2,13.2,13.2s13.2-5.9,13.2-13.2
		C318.6,415.2,312.7,409.3,305.4,409.3z M304.2,429.2c-1.7,0-3.1-0.4-3.9-0.9l0.6-2.3c0.5,0.3,1.8,0.8,3,0.8c1.6,0,2.4-0.8,2.4-1.7
		c0-1.3-1.3-1.9-2.6-1.9h-1.2v-2.2h1.2c1,0,2.3-0.4,2.3-1.5c0-0.8-0.6-1.4-1.9-1.4c-1.1,0-2.2,0.5-2.7,0.8l-0.6-2.2
		c0.8-0.5,2.3-1,4-1c2.8,0,4.3,1.5,4.3,3.2c0,1.4-0.8,2.5-2.4,3v0c1.6,0.3,2.8,1.5,2.8,3.2C309.5,427.6,307.5,429.2,304.2,429.2z"/>
	<g>
		<path class="st0" d="M277.6,115.5c-0.5-1.1-1.2-2.7-2.4-4.4c-0.3-0.4-0.8-0.5-1.2-0.2c-0.4,0.3-0.5,0.8-0.2,1.2
			c1.1,1.6,1.8,3,2.2,4.1c0.3,0.7,0.6,1.3,0.9,1.7c0.2,0.2,0.4,0.3,0.7,0.3c0.2,0,0.4-0.1,0.5-0.2c0.4-0.3,0.4-0.8,0.1-1.2
			C278.1,116.6,277.8,116.1,277.6,115.5L277.6,115.5z M277.6,115.5"/>
		<path class="st0" d="M263.4,102.6c-3.8-1.5-7.4-2.6-10.7-3.3c-0.5-0.1-0.9,0.2-1,0.7c-0.1,0.5,0.2,0.9,0.7,1
			c3.3,0.7,6.8,1.8,10.5,3.2c3.7,1.5,6.7,3.3,9,5.5c0.2,0.2,0.4,0.2,0.6,0.2c0.2,0,0.4-0.1,0.6-0.3c0.3-0.3,0.3-0.9,0-1.2
			C270.5,106.2,267.3,104.2,263.4,102.6L263.4,102.6z M263.4,102.6"/>
		<path class="st0" d="M248.9,98.7c-1.1-0.1-2.2-0.2-3.2-0.2c-0.5,0-0.9,0.4-0.9,0.8c0,0.5,0.4,0.9,0.8,0.9c0.9,0,3.1,0.2,3.1,0.2
			c0.4,0,0.8-0.3,0.9-0.8C249.7,99.2,249.4,98.8,248.9,98.7L248.9,98.7z M248.9,98.7"/>
		<path class="st0" d="M268.2,103.4c0.1,0.1,0.3,0.1,0.4,0.1c0.3,0,0.6-0.1,0.7-0.4c0.5-0.8,1.4-1.6,2.7-2.3
			c0.4-0.2,0.6-0.7,0.3-1.2c-0.2-0.4-0.7-0.6-1.2-0.3c-1.5,0.8-2.7,1.8-3.3,2.9C267.6,102.6,267.7,103.1,268.2,103.4L268.2,103.4z
			 M268.2,103.4"/>
		<path class="st0" d="M311.4,105.2c-1.1-1.3-2.7-3.7-3.7-7.4c-1.1-3.7-3.2-6.9-6.5-9.6c-0.1-0.1-0.6-0.5-0.8-0.6
			c-2.4-1.9-5.5-3.5-9-4.7c-1.8-0.6-3.7-1.2-5.8-1.7c-0.1,0-0.4-0.1-0.5-0.1c-1-0.2-2-0.4-3-0.6c-10.1-1.8-21.4,4.1-26.6,8.5
			c-1.1,1-1.4,2.6-0.7,3.9c0.1,0.2,0.2,0.3,0.3,0.5c-9.3,0.5-17.9,5.8-21.3,8.7c-1.1,1-1.4,2.6-0.7,3.9c1,1.8,2.2,2.5,2.8,2.8
			c0.8,1.2,4.4,5.8,15.2,9.4c8.7,2.9,15.2,4.3,20.1,4.3c2,0,3.7-0.2,5.1-0.7c1.5,1.6,3.3,2.9,6,3.5c0.3,0.1,0.6,0.1,1,0.1
			c0.9,0,1.8-0.3,2.5-0.7l0.1-0.1c2.8-1.8,3.7-5.6,2.1-8.5c-0.8-1.5-1.5-3.2-2.1-5c-0.3-0.9-0.6-1.7-0.9-2.6c3.1,0.6,5.7,1,8,1
			c2,0,3.7-0.2,5.1-0.7c1.7,1.9,3.6,3,6,3.5c0.3,0.1,0.6,0.1,1,0.1c0.9,0,1.8-0.3,2.6-0.7l3.2-2c0.7-0.4,1.1-1.1,1.3-1.9
			C312.2,106.7,312,105.9,311.4,105.2L311.4,105.2z M251.8,116.4c-9.8-3.3-13.3-7.3-14.2-8.5c0.6-1,2.7-3.6,7.3-3.6
			c0.8,0,1.7,0.1,2.5,0.2c6.9,1.2,19.7,3.5,24.3,10.3c0.5,0.7,1,1.5,1.4,2.3c0.6,1,1.3,2.1,2,3.1C270.7,121.4,263,120.1,251.8,116.4
			L251.8,116.4z M286.5,116.8c1.2,2.2,0.6,4.9-1.5,6.2l-0.1,0.1c-0.7,0.4-1.5,0.6-2.2,0.4c-4.2-0.9-6-4-8-7.2
			c-0.5-0.8-1-1.6-1.5-2.4c-4.4-6.5-14.9-9.2-25.5-11c-1-0.2-1.9-0.3-2.8-0.3c-5.2,0-7.8,2.8-8.7,4.2c-0.4-0.3-1-0.8-1.5-1.8
			c-0.3-0.6-0.2-1.3,0.3-1.7c3.7-3.1,11.7-7.7,19.8-8.3c-0.8,0.7-1.4,1.3-1.4,1.3c-0.3,0.3-0.3,0.9,0,1.2c0.2,0.2,0.4,0.2,0.6,0.2
			c0.2,0,0.5-0.1,0.6-0.3c0,0,2.1-1.8,3.5-2.5c1.1,0,2.5,0.3,2.7,0.4c-2.7,1.5-3.4,3-3.5,3.2c-0.2,0.4,0,0.9,0.4,1.1
			c0.1,0,0.2,0.1,0.3,0.1c0.3,0,0.6-0.2,0.8-0.5c0,0,0.9-1.8,4.8-3.3c1.1,0.3,2.1,0.5,3.1,0.8c-2.6,1.3-3.6,3.1-3.6,3.2
			c-0.2,0.4,0,0.9,0.4,1.1c0.1,0.1,0.3,0.1,0.4,0.1c0.3,0,0.6-0.2,0.8-0.5c0-0.1,1.2-2.3,4.8-3.1c2.9,1.1,5.3,2.3,7.2,3.6
			c-2.3,0.8-3.6,2.2-3.6,2.3c-0.3,0.4-0.3,0.9,0.1,1.2c0.2,0.1,0.4,0.2,0.6,0.2c0.2,0,0.5-0.1,0.6-0.3c0,0,1.4-1.6,4.1-2.1
			c3.5,2.9,5.2,6,5.9,8.8C284.9,113.4,285.6,115.2,286.5,116.8L286.5,116.8z M283.9,106.3c-1.7-2.8-4.3-5.3-7.7-7.3
			c-4-2.4-9.1-4.2-15.2-5.4c-0.2,0-0.7-0.1-0.7-0.1c2.8-2.7,7-2.4,8.8-2c6.9,1.2,19.7,3.5,24.3,10.3c0.5,0.7,1,1.5,1.4,2.3
			c0.6,1,1.3,2.1,2,3.1C294,107.9,289.7,107.7,283.9,106.3L283.9,106.3z M310.4,107.2c0,0.3-0.2,0.6-0.5,0.8l-3.2,2
			c-0.7,0.4-1.5,0.6-2.2,0.4c-2.2-0.5-3.9-1.6-5.4-3.4c-1-1.2-1.8-2.5-2.6-3.8c-0.5-0.8-1-1.6-1.5-2.4c-4.4-6.5-14.9-9.2-25.5-11
			c-6.6-1.2-9.8,1.8-11.2,3.5c-0.3,0-0.7,0-1-0.1c-0.3-0.3-0.6-0.8-0.9-1.2c-0.3-0.6-0.2-1.3,0.3-1.7c2.1-1.8,6-4.3,10.6-6.1
			c3.6-1.4,9.1-2.9,14.5-2c0.3,0,0.6,0.1,0.8,0.2c-0.8,0.5-1.3,1.1-1.7,1.6c-0.1,0.2-0.3,0.3-0.4,0.4c-0.3,0.3-0.3,0.9,0,1.2
			c0.2,0.2,0.4,0.3,0.6,0.3c0.2,0,0.4-0.1,0.6-0.2c0.2-0.2,0.3-0.3,0.5-0.5c0.6-0.7,1.4-1.5,3-2.2c1.1,0.3,2.1,0.5,3.1,0.8
			c-2.6,1.3-3.6,3.1-3.6,3.2c-0.2,0.4,0,0.9,0.4,1.1c0.1,0.1,0.3,0.1,0.4,0.1c0.3,0,0.6-0.2,0.8-0.5c0-0.1,1.2-2.3,4.7-3.1
			c2.7,1,5.2,2.2,7.2,3.6c-2.3,0.8-3.5,2.2-3.6,2.3c-0.3,0.4-0.3,0.9,0.1,1.2c0.2,0.1,0.4,0.2,0.6,0.2c0.2,0,0.5-0.1,0.6-0.3
			c0,0,1.4-1.6,4-2.1c3,2.5,5,5.4,6,8.8c1.2,4,2.9,6.6,4.1,8C310.3,106.6,310.4,106.9,310.4,107.2L310.4,107.2z M310.4,107.2"/>
		<path class="st0" d="M298,99.6c-0.3-0.5-0.6-1-1-1.5c-0.3-0.4-0.8-0.5-1.2-0.2c-0.4,0.3-0.5,0.8-0.2,1.2c0.3,0.4,0.6,0.9,0.9,1.4
			c0.2,0.3,0.4,0.4,0.7,0.4c0.1,0,0.3,0,0.4-0.1C298.1,100.6,298.2,100,298,99.6L298,99.6z M298,99.6"/>
		<path class="st0" d="M285.2,89.6c-3.8-1.5-7.4-2.6-10.7-3.3c-0.5-0.1-0.9,0.2-1,0.7c-0.1,0.5,0.2,0.9,0.7,1
			c3.3,0.7,6.8,1.8,10.5,3.2c3.7,1.5,6.7,3.3,9,5.5c0.2,0.2,0.4,0.2,0.6,0.2c0.2,0,0.4-0.1,0.6-0.3c0.3-0.3,0.3-0.9,0-1.2
			C292.3,93.1,289.1,91.1,285.2,89.6L285.2,89.6z M285.2,89.6"/>
		<path class="st0" d="M270.7,85.7c-0.5-0.1-1-0.1-1.5-0.1c-0.5,0-0.9,0.3-0.9,0.8c0,0.5,0.3,0.9,0.8,0.9c0.5,0,0.9,0.1,1.4,0.1
			c0,0,0.1,0,0.1,0c0.4,0,0.8-0.3,0.9-0.8C271.5,86.1,271.2,85.7,270.7,85.7L270.7,85.7z M270.7,85.7"/>
		<path class="st0" d="M275.7,84.7c0.2,0,0.5-0.1,0.6-0.3c0,0,0.3-0.3,0.8-0.7c0.4-0.3,0.4-0.9,0.1-1.2c-0.3-0.4-0.9-0.4-1.2-0.1
			c-0.5,0.5-0.9,0.8-0.9,0.8c-0.3,0.3-0.3,0.9,0,1.2C275.3,84.6,275.5,84.7,275.7,84.7L275.7,84.7z M275.7,84.7"/>
		<path class="st0" d="M289.9,90.3c0.1,0.1,0.3,0.1,0.4,0.1c0.3,0,0.6-0.1,0.7-0.4c0.4-0.6,0.9-1.2,1.7-1.7c0.4-0.3,0.5-0.8,0.2-1.2
			c-0.3-0.4-0.8-0.5-1.2-0.2c-1,0.7-1.7,1.4-2.2,2.3C289.4,89.5,289.5,90.1,289.9,90.3L289.9,90.3z M289.9,90.3"/>
		<path class="st0" d="M303.9,107.2c-1.7-0.6-3.6-3.1-4.2-4c-0.3-0.4-0.8-0.5-1.2-0.3c-0.4,0.3-0.5,0.8-0.3,1.2
			c0.1,0.2,2.4,3.7,5.1,4.6c0.1,0,0.2,0.1,0.3,0.1c0.4,0,0.7-0.2,0.8-0.6C304.5,107.9,304.3,107.4,303.9,107.2L303.9,107.2z
			 M303.9,107.2"/>
	</g>
	<g>
		<path class="st0" d="M361,115.5c-0.5-1.1-1.2-2.7-2.4-4.4c-0.3-0.4-0.8-0.5-1.2-0.2c-0.4,0.3-0.5,0.8-0.2,1.2
			c1.1,1.6,1.8,3,2.2,4.1c0.3,0.7,0.6,1.3,0.9,1.7c0.2,0.2,0.4,0.3,0.7,0.3c0.2,0,0.4-0.1,0.5-0.2c0.4-0.3,0.4-0.8,0.1-1.2
			C361.4,116.6,361.2,116.1,361,115.5L361,115.5z M361,115.5"/>
		<path class="st0" d="M346.8,102.6c-3.8-1.5-7.4-2.6-10.7-3.3c-0.5-0.1-0.9,0.2-1,0.7c-0.1,0.5,0.2,0.9,0.7,1
			c3.3,0.7,6.8,1.8,10.5,3.2c3.7,1.5,6.7,3.3,9,5.5c0.2,0.2,0.4,0.2,0.6,0.2c0.2,0,0.4-0.1,0.6-0.3c0.3-0.3,0.3-0.9,0-1.2
			C353.9,106.2,350.7,104.2,346.8,102.6L346.8,102.6z M346.8,102.6"/>
		<path class="st0" d="M332.3,98.7c-1.1-0.1-2.2-0.2-3.2-0.2c-0.5,0-0.9,0.4-0.9,0.8c0,0.5,0.4,0.9,0.8,0.9c0.9,0,3.1,0.2,3.1,0.2
			c0.4,0,0.8-0.3,0.9-0.8C333.1,99.2,332.8,98.8,332.3,98.7L332.3,98.7z M332.3,98.7"/>
		<path class="st0" d="M351.5,103.4c0.1,0.1,0.3,0.1,0.4,0.1c0.3,0,0.6-0.1,0.7-0.4c0.5-0.8,1.4-1.6,2.7-2.3
			c0.4-0.2,0.6-0.7,0.3-1.2c-0.2-0.4-0.7-0.6-1.2-0.3c-1.5,0.8-2.7,1.8-3.3,2.9C351,102.6,351.1,103.1,351.5,103.4L351.5,103.4z
			 M351.5,103.4"/>
		<path class="st0" d="M394.8,105.2c-1.1-1.3-2.7-3.7-3.7-7.4c-1.1-3.7-3.2-6.9-6.5-9.6c-0.1-0.1-0.6-0.5-0.8-0.6
			c-2.4-1.9-5.5-3.5-9-4.7c-1.8-0.6-3.7-1.2-5.8-1.7c-0.1,0-0.4-0.1-0.5-0.1c-1-0.2-2-0.4-3-0.6c-10.1-1.8-21.4,4.1-26.6,8.5
			c-1.1,1-1.4,2.6-0.7,3.9c0.1,0.2,0.2,0.3,0.3,0.5c-9.3,0.5-17.9,5.8-21.3,8.7c-1.1,1-1.4,2.6-0.7,3.9c1,1.8,2.2,2.5,2.8,2.8
			c0.8,1.2,4.4,5.8,15.2,9.4c8.7,2.9,15.2,4.3,20.1,4.3c2,0,3.7-0.2,5.1-0.7c1.5,1.6,3.3,2.9,6,3.5c0.3,0.1,0.6,0.1,1,0.1
			c0.9,0,1.8-0.3,2.5-0.7l0.1-0.1c2.8-1.8,3.7-5.6,2.1-8.5c-0.8-1.5-1.5-3.2-2.1-5c-0.3-0.9-0.6-1.7-0.9-2.6c3.1,0.6,5.7,1,8,1
			c2,0,3.7-0.2,5.1-0.7c1.7,1.9,3.6,3,6,3.5c0.3,0.1,0.6,0.1,1,0.1c0.9,0,1.8-0.3,2.6-0.7l3.2-2c0.7-0.4,1.1-1.1,1.3-1.9
			C395.6,106.7,395.3,105.9,394.8,105.2L394.8,105.2z M335.2,116.4c-9.8-3.3-13.3-7.3-14.2-8.5c0.6-1,2.7-3.6,7.3-3.6
			c0.8,0,1.7,0.1,2.5,0.2c6.9,1.2,19.7,3.5,24.3,10.3c0.5,0.7,1,1.5,1.4,2.3c0.6,1,1.3,2.1,2,3.1
			C354.1,121.4,346.4,120.1,335.2,116.4L335.2,116.4z M369.9,116.8c1.2,2.2,0.6,4.9-1.5,6.2l-0.1,0.1c-0.7,0.4-1.5,0.6-2.2,0.4
			c-4.2-0.9-6-4-8-7.2c-0.5-0.8-1-1.6-1.5-2.4c-4.4-6.5-14.9-9.2-25.5-11c-1-0.2-1.9-0.3-2.8-0.3c-5.2,0-7.8,2.8-8.7,4.2
			c-0.4-0.3-1-0.8-1.5-1.8c-0.3-0.6-0.2-1.3,0.3-1.7c3.7-3.1,11.7-7.7,19.8-8.3c-0.8,0.7-1.4,1.3-1.4,1.3c-0.3,0.3-0.3,0.9,0,1.2
			c0.2,0.2,0.4,0.2,0.6,0.2c0.2,0,0.5-0.1,0.6-0.3c0,0,2.1-1.8,3.5-2.5c1.1,0,2.5,0.3,2.7,0.4c-2.7,1.5-3.4,3-3.5,3.2
			c-0.2,0.4,0,0.9,0.4,1.1c0.1,0,0.2,0.1,0.3,0.1c0.3,0,0.6-0.2,0.8-0.5c0,0,0.9-1.8,4.8-3.3c1.1,0.3,2.1,0.5,3.1,0.8
			c-2.6,1.3-3.6,3.1-3.6,3.2c-0.2,0.4,0,0.9,0.4,1.1c0.1,0.1,0.3,0.1,0.4,0.1c0.3,0,0.6-0.2,0.8-0.5c0-0.1,1.2-2.3,4.8-3.1
			c2.9,1.1,5.3,2.3,7.2,3.6c-2.3,0.8-3.6,2.2-3.6,2.3c-0.3,0.4-0.3,0.9,0.1,1.2c0.2,0.1,0.4,0.2,0.6,0.2c0.2,0,0.5-0.1,0.6-0.3
			c0,0,1.4-1.6,4.1-2.1c3.5,2.9,5.2,6,5.9,8.8C368.2,113.4,369,115.2,369.9,116.8L369.9,116.8z M367.3,106.3
			c-1.7-2.8-4.3-5.3-7.7-7.3c-4-2.4-9.1-4.2-15.2-5.4c-0.2,0-0.7-0.1-0.7-0.1c2.8-2.7,7-2.4,8.8-2c6.9,1.2,19.7,3.5,24.3,10.3
			c0.5,0.7,1,1.5,1.4,2.3c0.6,1,1.3,2.1,2,3.1C377.4,107.9,373.1,107.7,367.3,106.3L367.3,106.3z M393.7,107.2
			c0,0.3-0.2,0.6-0.5,0.8l-3.2,2c-0.7,0.4-1.5,0.6-2.2,0.4c-2.2-0.5-3.9-1.6-5.4-3.4c-1-1.2-1.8-2.5-2.6-3.8c-0.5-0.8-1-1.6-1.5-2.4
			c-4.4-6.5-14.9-9.2-25.5-11c-6.6-1.2-9.8,1.8-11.2,3.5c-0.3,0-0.7,0-1-0.1c-0.3-0.3-0.6-0.8-0.9-1.2c-0.3-0.6-0.2-1.3,0.3-1.7
			c2.1-1.8,6-4.3,10.6-6.1c3.6-1.4,9.1-2.9,14.5-2c0.3,0,0.6,0.1,0.8,0.2c-0.8,0.5-1.3,1.1-1.7,1.6c-0.1,0.2-0.3,0.3-0.4,0.4
			c-0.3,0.3-0.3,0.9,0,1.2c0.2,0.2,0.4,0.3,0.6,0.3c0.2,0,0.4-0.1,0.6-0.2c0.2-0.2,0.3-0.3,0.5-0.5c0.6-0.7,1.4-1.5,3-2.2
			c1.1,0.3,2.1,0.5,3.1,0.8c-2.6,1.3-3.6,3.1-3.6,3.2c-0.2,0.4,0,0.9,0.4,1.1c0.1,0.1,0.3,0.1,0.4,0.1c0.3,0,0.6-0.2,0.8-0.5
			c0-0.1,1.2-2.3,4.7-3.1c2.7,1,5.2,2.2,7.2,3.6c-2.3,0.8-3.5,2.2-3.6,2.3c-0.3,0.4-0.3,0.9,0.1,1.2c0.2,0.1,0.4,0.2,0.6,0.2
			c0.2,0,0.5-0.1,0.6-0.3c0,0,1.4-1.6,4-2.1c3,2.5,5,5.4,6,8.8c1.2,4,2.9,6.6,4.1,8C393.7,106.6,393.8,106.9,393.7,107.2
			L393.7,107.2z M393.7,107.2"/>
		<path class="st0" d="M381.3,99.6c-0.3-0.5-0.6-1-1-1.5c-0.3-0.4-0.8-0.5-1.2-0.2c-0.4,0.3-0.5,0.8-0.2,1.2
			c0.3,0.4,0.6,0.9,0.9,1.4c0.2,0.3,0.4,0.4,0.7,0.4c0.1,0,0.3,0,0.4-0.1C381.4,100.6,381.6,100,381.3,99.6L381.3,99.6z M381.3,99.6
			"/>
		<path class="st0" d="M368.6,89.6c-3.8-1.5-7.4-2.6-10.7-3.3c-0.5-0.1-0.9,0.2-1,0.7c-0.1,0.5,0.2,0.9,0.7,1
			c3.3,0.7,6.8,1.8,10.5,3.2c3.7,1.5,6.7,3.3,9,5.5c0.2,0.2,0.4,0.2,0.6,0.2c0.2,0,0.4-0.1,0.6-0.3c0.3-0.3,0.3-0.9,0-1.2
			C375.7,93.1,372.5,91.1,368.6,89.6L368.6,89.6z M368.6,89.6"/>
		<path class="st0" d="M354.1,85.7c-0.5-0.1-1-0.1-1.5-0.1c-0.5,0-0.9,0.3-0.9,0.8c0,0.5,0.3,0.9,0.8,0.9c0.5,0,0.9,0.1,1.4,0.1
			c0,0,0.1,0,0.1,0c0.4,0,0.8-0.3,0.9-0.8C354.9,86.1,354.5,85.7,354.1,85.7L354.1,85.7z M354.1,85.7"/>
		<path class="st0" d="M359.1,84.7c0.2,0,0.5-0.1,0.6-0.3c0,0,0.3-0.3,0.8-0.7c0.4-0.3,0.4-0.9,0.1-1.2c-0.3-0.4-0.9-0.4-1.2-0.1
			c-0.5,0.5-0.9,0.8-0.9,0.8c-0.3,0.3-0.3,0.9,0,1.2C358.7,84.6,358.9,84.7,359.1,84.7L359.1,84.7z M359.1,84.7"/>
		<path class="st0" d="M373.3,90.3c0.1,0.1,0.3,0.1,0.4,0.1c0.3,0,0.6-0.1,0.7-0.4c0.4-0.6,0.9-1.2,1.7-1.7c0.4-0.3,0.5-0.8,0.2-1.2
			c-0.3-0.4-0.8-0.5-1.2-0.2c-1,0.7-1.7,1.4-2.2,2.3C372.8,89.5,372.9,90.1,373.3,90.3L373.3,90.3z M373.3,90.3"/>
		<path class="st0" d="M387.2,107.2c-1.7-0.6-3.6-3.1-4.2-4c-0.3-0.4-0.8-0.5-1.2-0.3c-0.4,0.3-0.5,0.8-0.3,1.2
			c0.1,0.2,2.4,3.7,5.1,4.6c0.1,0,0.2,0.1,0.3,0.1c0.4,0,0.7-0.2,0.8-0.6C387.9,107.9,387.7,107.4,387.2,107.2L387.2,107.2z
			 M387.2,107.2"/>
	</g>
	<g>
		<path class="st0" d="M313.9,152.5c-0.5-1.1-1.2-2.7-2.4-4.4c-0.3-0.4-0.8-0.5-1.2-0.2c-0.4,0.3-0.5,0.8-0.2,1.2
			c1.1,1.6,1.8,3,2.2,4.1c0.3,0.7,0.6,1.3,0.9,1.7c0.2,0.2,0.4,0.3,0.7,0.3c0.2,0,0.4-0.1,0.5-0.2c0.4-0.3,0.4-0.8,0.1-1.2
			C314.4,153.6,314.2,153.1,313.9,152.5L313.9,152.5z M313.9,152.5"/>
		<path class="st0" d="M299.8,139.7c-3.8-1.5-7.4-2.6-10.7-3.3c-0.5-0.1-0.9,0.2-1,0.7c-0.1,0.5,0.2,0.9,0.7,1
			c3.3,0.7,6.8,1.8,10.5,3.2c3.7,1.5,6.7,3.3,9,5.5c0.2,0.2,0.4,0.2,0.6,0.2c0.2,0,0.4-0.1,0.6-0.3c0.3-0.3,0.3-0.9,0-1.2
			C306.9,143.2,303.7,141.2,299.8,139.7L299.8,139.7z M299.8,139.7"/>
		<path class="st0" d="M285.3,135.7c-1.1-0.1-2.2-0.2-3.2-0.2c-0.5,0-0.9,0.4-0.9,0.8c0,0.5,0.4,0.9,0.8,0.9c0.9,0,3.1,0.2,3.1,0.2
			c0.4,0,0.8-0.3,0.9-0.8C286.1,136.2,285.8,135.8,285.3,135.7L285.3,135.7z M285.3,135.7"/>
		<path class="st0" d="M304.5,140.4c0.1,0.1,0.3,0.1,0.4,0.1c0.3,0,0.6-0.1,0.7-0.4c0.5-0.8,1.4-1.6,2.7-2.3
			c0.4-0.2,0.6-0.7,0.3-1.2c-0.2-0.4-0.7-0.6-1.2-0.3c-1.5,0.8-2.7,1.8-3.3,2.9C304,139.6,304.1,140.1,304.5,140.4L304.5,140.4z
			 M304.5,140.4"/>
		<path class="st0" d="M347.8,142.3c-1.1-1.3-2.7-3.7-3.7-7.4c-1.1-3.7-3.2-6.9-6.5-9.6c-0.1-0.1-0.6-0.5-0.8-0.6
			c-2.4-1.9-5.5-3.5-9-4.7c-1.8-0.6-3.7-1.2-5.8-1.7c-0.1,0-0.4-0.1-0.5-0.1c-1-0.2-2-0.4-3-0.6c-10.1-1.8-21.4,4.1-26.6,8.5
			c-1.1,1-1.4,2.6-0.7,3.9c0.1,0.2,0.2,0.3,0.3,0.5c-9.3,0.5-17.9,5.8-21.3,8.7c-1.1,1-1.4,2.6-0.7,3.9c1,1.8,2.2,2.5,2.8,2.8
			c0.8,1.2,4.4,5.8,15.2,9.4c8.7,2.9,15.2,4.3,20.1,4.3c2,0,3.7-0.2,5.1-0.7c1.5,1.6,3.3,2.9,6,3.5c0.3,0.1,0.6,0.1,1,0.1
			c0.9,0,1.8-0.3,2.5-0.7l0.1-0.1c2.8-1.8,3.7-5.6,2.1-8.5c-0.8-1.5-1.5-3.2-2.1-5c-0.3-0.9-0.6-1.7-0.9-2.6c3.1,0.6,5.7,1,8,1
			c2,0,3.7-0.2,5.1-0.7c1.7,1.9,3.6,3,6,3.5c0.3,0.1,0.6,0.1,1,0.1c0.9,0,1.8-0.3,2.6-0.7l3.2-2c0.7-0.4,1.1-1.1,1.3-1.9
			C348.5,143.7,348.3,142.9,347.8,142.3L347.8,142.3z M288.1,153.4c-9.8-3.3-13.3-7.3-14.2-8.5c0.6-1,2.7-3.6,7.3-3.6
			c0.8,0,1.7,0.1,2.5,0.2c6.9,1.2,19.7,3.5,24.3,10.3c0.5,0.7,1,1.5,1.4,2.3c0.6,1,1.3,2.1,2,3.1C307,158.4,299.4,157.2,288.1,153.4
			L288.1,153.4z M322.9,153.8c1.2,2.2,0.6,4.9-1.5,6.2l-0.1,0.1c-0.7,0.4-1.5,0.6-2.2,0.4c-4.2-0.9-6-4-8-7.2
			c-0.5-0.8-1-1.6-1.5-2.4c-4.4-6.5-14.9-9.2-25.5-11c-1-0.2-1.9-0.3-2.8-0.3c-5.2,0-7.8,2.8-8.7,4.2c-0.4-0.3-1-0.8-1.5-1.8
			c-0.3-0.6-0.2-1.3,0.3-1.7c3.7-3.1,11.7-7.7,19.8-8.3c-0.8,0.7-1.4,1.3-1.4,1.3c-0.3,0.3-0.3,0.9,0,1.2c0.2,0.2,0.4,0.2,0.6,0.2
			c0.2,0,0.5-0.1,0.6-0.3c0,0,2.1-1.8,3.5-2.5c1.1,0,2.5,0.3,2.7,0.4c-2.7,1.5-3.4,3-3.5,3.2c-0.2,0.4,0,0.9,0.4,1.1
			c0.1,0,0.2,0.1,0.3,0.1c0.3,0,0.6-0.2,0.8-0.5c0,0,0.9-1.8,4.8-3.3c1.1,0.3,2.1,0.5,3.1,0.8c-2.6,1.3-3.6,3.1-3.6,3.2
			c-0.2,0.4,0,0.9,0.4,1.1c0.1,0.1,0.3,0.1,0.4,0.1c0.3,0,0.6-0.2,0.8-0.5c0-0.1,1.2-2.3,4.8-3.1c2.9,1.1,5.3,2.3,7.2,3.6
			c-2.3,0.8-3.6,2.2-3.6,2.3c-0.3,0.4-0.3,0.9,0.1,1.2c0.2,0.1,0.4,0.2,0.6,0.2c0.2,0,0.5-0.1,0.6-0.3c0,0,1.4-1.6,4.1-2.1
			c3.5,2.9,5.2,6,5.9,8.8C321.2,150.4,322,152.2,322.9,153.8L322.9,153.8z M320.3,143.4c-1.7-2.8-4.3-5.3-7.7-7.3
			c-4-2.4-9.1-4.2-15.2-5.4c-0.2,0-0.7-0.1-0.7-0.1c2.8-2.7,7-2.4,8.8-2c6.9,1.2,19.7,3.5,24.3,10.3c0.5,0.7,1,1.5,1.4,2.3
			c0.6,1,1.3,2.1,2,3.1C330.3,144.9,326.1,144.7,320.3,143.4L320.3,143.4z M346.7,144.2c0,0.3-0.2,0.6-0.5,0.8l-3.2,2
			c-0.7,0.4-1.5,0.6-2.2,0.4c-2.2-0.5-3.9-1.6-5.4-3.4c-1-1.2-1.8-2.5-2.6-3.8c-0.5-0.8-1-1.6-1.5-2.4c-4.4-6.5-14.9-9.2-25.5-11
			c-6.6-1.2-9.8,1.8-11.2,3.5c-0.3,0-0.7,0-1-0.1c-0.3-0.3-0.6-0.8-0.9-1.2c-0.3-0.6-0.2-1.3,0.3-1.7c2.1-1.8,6-4.3,10.6-6.1
			c3.6-1.4,9.1-2.9,14.5-2c0.3,0,0.6,0.1,0.8,0.2c-0.8,0.5-1.3,1.1-1.7,1.6c-0.1,0.2-0.3,0.3-0.4,0.4c-0.3,0.3-0.3,0.9,0,1.2
			c0.2,0.2,0.4,0.3,0.6,0.3c0.2,0,0.4-0.1,0.6-0.2c0.2-0.2,0.3-0.3,0.5-0.5c0.6-0.7,1.4-1.5,3-2.2c1.1,0.3,2.1,0.5,3.1,0.8
			c-2.6,1.3-3.6,3.1-3.6,3.2c-0.2,0.4,0,0.9,0.4,1.1c0.1,0.1,0.3,0.1,0.4,0.1c0.3,0,0.6-0.2,0.8-0.5c0-0.1,1.2-2.3,4.7-3.1
			c2.7,1,5.2,2.2,7.2,3.6c-2.3,0.8-3.5,2.2-3.6,2.3c-0.3,0.4-0.3,0.9,0.1,1.2c0.2,0.1,0.4,0.2,0.6,0.2c0.2,0,0.5-0.1,0.6-0.3
			c0,0,1.4-1.6,4-2.1c3,2.5,5,5.4,6,8.8c1.2,4,2.9,6.6,4.1,8C346.7,143.6,346.8,143.9,346.7,144.2L346.7,144.2z M346.7,144.2"/>
		<path class="st0" d="M334.3,136.6c-0.3-0.5-0.6-1-1-1.5c-0.3-0.4-0.8-0.5-1.2-0.2c-0.4,0.3-0.5,0.8-0.2,1.2
			c0.3,0.4,0.6,0.9,0.9,1.4c0.2,0.3,0.4,0.4,0.7,0.4c0.1,0,0.3,0,0.4-0.1C334.4,137.6,334.5,137,334.3,136.6L334.3,136.6z
			 M334.3,136.6"/>
		<path class="st0" d="M321.5,126.6c-3.8-1.5-7.4-2.6-10.7-3.3c-0.5-0.1-0.9,0.2-1,0.7c-0.1,0.5,0.2,0.9,0.7,1
			c3.3,0.7,6.8,1.8,10.5,3.2c3.7,1.5,6.7,3.3,9,5.5c0.2,0.2,0.4,0.2,0.6,0.2c0.2,0,0.4-0.1,0.6-0.3c0.3-0.3,0.3-0.9,0-1.2
			C328.6,130.1,325.4,128.2,321.5,126.6L321.5,126.6z M321.5,126.6"/>
		<path class="st0" d="M307,122.7c-0.5-0.1-1-0.1-1.5-0.1c-0.5,0-0.9,0.3-0.9,0.8c0,0.5,0.3,0.9,0.8,0.9c0.5,0,0.9,0.1,1.4,0.1
			c0,0,0.1,0,0.1,0c0.4,0,0.8-0.3,0.9-0.8C307.9,123.2,307.5,122.7,307,122.7L307,122.7z M307,122.7"/>
		<path class="st0" d="M312.1,121.7c0.2,0,0.5-0.1,0.6-0.3c0,0,0.3-0.3,0.8-0.7c0.4-0.3,0.4-0.9,0.1-1.2c-0.3-0.4-0.9-0.4-1.2-0.1
			c-0.5,0.5-0.9,0.8-0.9,0.8c-0.3,0.3-0.3,0.9,0,1.2C311.7,121.7,311.9,121.7,312.1,121.7L312.1,121.7z M312.1,121.7"/>
		<path class="st0" d="M326.3,127.3c0.1,0.1,0.3,0.1,0.4,0.1c0.3,0,0.6-0.1,0.7-0.4c0.4-0.6,0.9-1.2,1.7-1.7
			c0.4-0.3,0.5-0.8,0.2-1.2c-0.3-0.4-0.8-0.5-1.2-0.2c-1,0.7-1.7,1.4-2.2,2.3C325.7,126.6,325.9,127.1,326.3,127.3L326.3,127.3z
			 M326.3,127.3"/>
		<path class="st0" d="M340.2,144.3c-1.7-0.6-3.6-3.1-4.2-4c-0.3-0.4-0.8-0.5-1.2-0.3c-0.4,0.3-0.5,0.8-0.3,1.2
			c0.1,0.2,2.4,3.7,5.1,4.6c0.1,0,0.2,0.1,0.3,0.1c0.4,0,0.7-0.2,0.8-0.6C340.9,144.9,340.7,144.4,340.2,144.3L340.2,144.3z
			 M340.2,144.3"/>
	</g>
</g>
</svg>
