<?xml version="1.0" encoding="UTF-8" standalone="no"?>
<svg width="40px" height="24px" viewBox="0 0 40 24" version="1.1" xmlns="http://www.w3.org/2000/svg" xmlns:xlink="http://www.w3.org/1999/xlink">
    <!-- Generator: Sketch 49 (51002) - http://www.bohemiancoding.com/sketch -->
    <title>burgerMenu</title>
    <desc>Created with Sketch.</desc>
    <defs>
        <polygon id="path-1" points="0.06 7.304 0.06 0.499 19.6655 0.499 39.271 0.499 39.271 7.304"></polygon>
        <polygon id="path-3" points="39.641 0.884 39.641 7.689 0.552936034 7.689 0.552936034 0.884 39.641 0.884"></polygon>
        <polygon id="path-5" points="39.641 0.294 39.641 6.94 0.561453181 6.94 0.561453181 0.294 39.641 0.294"></polygon>
    </defs>
    <g id="Landing" stroke="none" stroke-width="1" fill="none" fill-rule="evenodd">
        <g id="tablet-768" transform="translate(-717.000000, -17.000000)">
            <g id="burgerMenu" transform="translate(717.000000, 17.000000)">
                <path d="M36.177,3.828 C36.149,3.828 36.127,3.814 36.113,3.778 C36.107,3.652 36.081,3.559 36.043,3.486 L36.381,3.739 C36.302,3.778 36.229,3.828 36.177,3.828" id="Fill-1" fill="#D84D43"></path>
                <polyline id="Fill-2" fill="#D84D43" points="35.73 3.248 35.591 3.215 35.67 3.202 35.73 3.248"></polyline>
                <path d="M35.356,3.195 C35.232,3.18 35.113,3.148 35.011,3.068 C35.018,3.068 35.024,3.068 35.03,3.068 C35.18,3.068 35.284,3.118 35.356,3.195" id="Fill-3" fill="#D84D43"></path>
                <path d="M35.467,3.426 L35.356,3.195 L35.591,3.215 L35.587,3.215 C35.49,3.243 35.467,3.332 35.467,3.426" id="Fill-4" fill="#D84D43"></path>
                <path d="M35.479,3.68 C35.476,3.621 35.472,3.526 35.467,3.426 L35.479,3.68" id="Fill-5" fill="#D84D43"></path>
                <path d="M35.843,5.57 C35.755,5.467 35.67,5.358 35.537,5.305 C35.165,5.241 34.814,5.205 34.449,5.205 C34.286,5.205 34.12,5.212 33.949,5.227 C33.398,5.12 32.878,5.019 32.309,4.909 C31.876,4.823 32.847,4.276 33.178,4.276 C33.179,4.276 33.18,4.276 33.181,4.276 C33.189,4.272 33.196,4.271 33.203,4.271 C33.269,4.271 33.292,4.408 33.314,4.544 C33.336,4.681 33.357,4.818 33.42,4.818 C33.427,4.818 33.434,4.816 33.442,4.813 C33.511,4.843 33.586,4.854 33.666,4.854 C33.876,4.854 34.121,4.777 34.373,4.759 C34.383,4.755 34.392,4.754 34.399,4.754 C34.456,4.754 34.429,4.859 34.395,4.964 C34.361,5.069 34.319,5.174 34.349,5.174 C34.351,5.174 34.353,5.174 34.356,5.173 C34.376,5.175 34.396,5.176 34.416,5.176 C34.568,5.176 34.742,5.122 34.908,5.069 C35.074,5.016 35.232,4.962 35.351,4.962 C35.431,4.962 35.494,4.987 35.53,5.052 C35.652,5.233 35.751,5.403 35.843,5.57" id="Fill-6" fill="#D84D43"></path>
                <path d="M38.303,6.304 C38.008,6.101 37.806,5.843 37.752,5.359 C37.753,5.473 37.696,5.542 37.614,5.542 C37.579,5.542 37.54,5.529 37.499,5.502 L37.585,5.184 C37.93,5.287 38.302,5.416 38.229,5.924 C38.229,5.924 38.426,5.933 38.525,5.938 C38.543,6.065 38.404,6.183 38.303,6.304" id="Fill-7" fill="#D84D43"></path>
                <g id="Group-11">
                    <mask id="mask-2" fill="white">
                        <use xlink:href="#path-1"></use>
                    </mask>
                    <g id="Clip-9"></g>
                    <polyline id="Fill-8" fill="#D84D43" mask="url(#mask-2)" points="38.488 6.434 38.271 6.343 38.303 6.304 38.493 6.42 38.488 6.434"></polyline>
                    <path d="M8.585,7.109 C8.039,7.109 7.48,6.946 6.893,6.489 C6.459,6.172 6.001,6.054 5.601,6.054 C4.685,6.054 4.071,6.673 4.744,6.932 C4.374,6.834 4.067,6.802 3.801,6.802 C3.551,6.802 3.338,6.83 3.142,6.858 C2.947,6.886 2.769,6.915 2.592,6.915 C2.165,6.915 1.738,6.753 1.061,6.04 C0.963,5.926 -0.732,3.902 0.372,2.457 C1.351,2.009 3.144,1.155 4.425,1.155 C4.535,1.155 4.641,1.161 4.743,1.175 C5.298,1.264 5.829,1.301 6.342,1.301 C7.54,1.301 8.642,1.1 9.739,0.9 C10.836,0.699 11.927,0.499 13.102,0.499 C13.268,0.499 13.436,0.503 13.606,0.511 C15.007,0.567 16.419,0.63 17.863,0.63 C17.992,0.63 18.122,0.629 18.252,0.628 C19.254,0.618 20.219,0.599 21.168,0.599 C22.974,0.599 24.72,0.671 26.539,1.022 C26.965,1.114 27.384,1.205 27.801,1.296 L28.431,1.433 L28.48,1.493 L28.458,1.438 L28.607,1.471 C28.665,1.664 28.776,1.715 28.906,1.715 C28.972,1.715 29.044,1.702 29.115,1.688 L29.297,1.673 L30.115,1.91 L30.046,1.95 L30.183,1.93 L30.541,2.027 C30.597,2.081 30.649,2.155 30.692,2.266 C30.708,2.285 30.725,2.293 30.742,2.293 C30.797,2.293 30.856,2.205 30.925,2.13 C31.755,2.401 32.555,2.662 33.432,2.948 C33.432,2.948 33.735,3.489 33.751,3.812 L33.545,3.771 C33.585,3.619 33.658,3.452 33.595,3.336 L33.338,3.435 C33.261,3.091 33.072,3.009 32.854,3.009 C32.735,3.009 32.607,3.033 32.484,3.053 L32.526,3.368 C32.537,3.369 32.547,3.37 32.557,3.37 C32.705,3.37 32.766,3.252 32.692,3.11 C32.936,3.508 33.217,3.677 33.545,3.771 L33.533,3.822 C33.462,3.817 33.389,3.815 33.315,3.815 C32.746,3.815 32.114,3.958 31.581,4.103 L31.33,4.18 C31.214,4.169 31.118,4.113 31.022,4.051 C30.878,3.922 30.737,3.763 30.556,3.65 C30.526,3.623 30.492,3.612 30.454,3.612 C30.204,3.612 29.801,4.124 29.439,4.174 C29.436,4.176 29.433,4.177 29.43,4.177 C29.405,4.177 29.413,4.07 29.416,3.962 C29.418,3.855 29.415,3.748 29.368,3.748 C29.359,3.748 29.348,3.752 29.336,3.761 C29.044,3.856 28.782,4.035 28.537,4.035 C28.508,4.035 28.48,4.032 28.452,4.027 C28.442,4.034 28.432,4.038 28.423,4.038 C28.365,4.038 28.31,3.922 28.255,3.807 C28.2,3.692 28.143,3.577 28.083,3.577 C28.071,3.577 28.059,3.581 28.048,3.59 C27.716,3.723 26.878,4.425 27.329,4.433 C27.947,4.402 28.378,4.317 28.9,4.317 C28.953,4.317 29.006,4.318 29.061,4.32 C28.575,4.438 28.08,4.552 27.534,4.552 C27.449,4.552 27.362,4.549 27.275,4.543 C26.899,4.51 26.431,4.213 25.954,4.213 C25.912,4.213 25.87,4.216 25.827,4.221 C25.108,4.493 24.38,4.999 23.575,4.999 C23.561,4.999 23.547,4.999 23.533,4.999 C23.362,4.991 23.192,4.988 23.023,4.988 C21.678,4.988 20.411,5.216 19.153,5.444 C17.894,5.672 16.643,5.899 15.329,5.899 C15.062,5.899 14.791,5.89 14.518,5.869 C13.979,5.926 13.514,6.075 13.048,6.075 C13.002,6.075 12.955,6.073 12.909,6.07 C12.841,6.065 12.773,6.063 12.705,6.063 C11.985,6.063 11.3,6.324 10.623,6.586 C9.946,6.848 9.276,7.109 8.585,7.109 M31.655,3.484 C31.617,3.684 31.58,3.883 31.58,4.06 C31.58,3.883 31.617,3.684 31.655,3.484 C31.752,3.546 31.864,3.714 31.959,3.775 C31.864,3.714 31.752,3.546 31.655,3.484 M30.037,2.315 C30.052,2.355 30.065,2.391 30.075,2.418 L30.037,2.315 M29.826,1.991 L29.99,2.188 C29.965,2.096 29.961,2.005 30.042,1.953 L30.046,1.95 L30.002,1.958 L29.319,1.751 C29.37,1.949 29.478,2 29.607,2 C29.625,2 29.643,1.999 29.661,1.997 C29.677,1.998 29.693,1.999 29.709,1.999 C29.748,1.999 29.787,1.995 29.826,1.991 C29.819,1.985 29.811,1.98 29.803,1.976 C29.809,1.974 29.815,1.973 29.821,1.972 L30.001,1.959 L29.826,1.991 M27.297,2.125 L27.298,2.125 L27.297,2.125 M27.236,2.063 C27.253,2.107 27.274,2.125 27.297,2.125 C27.274,2.125 27.253,2.107 27.236,2.063 M27.606,1.874 C27.65,1.874 27.689,1.924 27.716,2.07 C27.688,1.924 27.65,1.874 27.606,1.874 M27.235,2.061 C27.236,2.062 27.236,2.062 27.236,2.063 C27.236,2.062 27.236,2.062 27.235,2.061 M26.966,1.545 C27.065,1.729 27.15,1.93 27.234,2.058 C27.15,1.93 27.065,1.729 26.966,1.545 M27.447,2 C27.446,2.001 27.445,2.002 27.445,2.003 C27.445,2.002 27.446,2.001 27.447,2 M27.451,1.996 C27.45,1.997 27.449,1.998 27.448,1.999 C27.449,1.998 27.45,1.997 27.451,1.996 M26.52,1.115 C26.457,1.115 26.389,1.14 26.317,1.197 C26.47,1.439 26.659,1.57 26.836,1.57 C26.88,1.57 26.924,1.561 26.966,1.545 C26.844,1.316 26.7,1.115 26.52,1.115 M4.944,6.989 C4.868,6.973 4.801,6.954 4.744,6.932 C4.809,6.949 4.875,6.968 4.944,6.989 M32.692,3.11 C32.684,3.098 32.677,3.085 32.669,3.073 C32.678,3.085 32.685,3.098 32.692,3.11" id="Fill-10" fill="#D22832" mask="url(#mask-2)"></path>
                </g>
                <path d="M29.607,2 C29.478,2 29.37,1.949 29.319,1.751 L30.002,1.958 L30.003,1.959 L30.001,1.959 L29.821,1.972 C29.815,1.973 29.809,1.974 29.803,1.976 C29.755,1.984 29.707,1.993 29.661,1.997 C29.643,1.999 29.625,2 29.607,2" id="Fill-12" fill="#D22832"></path>
                <path d="M36.73,12.213 C36.702,12.213 36.68,12.199 36.666,12.163 C36.66,12.038 36.634,11.944 36.596,11.871 L36.934,12.124 C36.856,12.163 36.783,12.213 36.73,12.213" id="Fill-13" fill="#D22832"></path>
                <polyline id="Fill-14" fill="#D22832" points="36.283 11.633 36.144 11.6 36.223 11.587 36.283 11.633"></polyline>
                <path d="M35.909,11.581 C35.785,11.565 35.666,11.534 35.564,11.453 C35.571,11.453 35.577,11.453 35.583,11.453 C35.733,11.453 35.838,11.503 35.909,11.581" id="Fill-15" fill="#D22832"></path>
                <path d="M36.02,11.811 L35.909,11.581 L36.144,11.6 L36.141,11.6 C36.043,11.628 36.021,11.717 36.02,11.811" id="Fill-16" fill="#D22832"></path>
                <path d="M36.033,12.065 C36.03,12.007 36.025,11.911 36.02,11.811 L36.033,12.065" id="Fill-17" fill="#D22832"></path>
                <path d="M36.396,13.955 C36.308,13.852 36.223,13.744 36.09,13.69 C35.718,13.626 35.367,13.59 35.002,13.59 C34.839,13.59 34.674,13.597 34.502,13.612 C33.951,13.505 33.432,13.405 32.862,13.294 C32.429,13.208 33.401,12.661 33.731,12.661 C33.732,12.661 33.733,12.661 33.734,12.661 C33.742,12.658 33.75,12.656 33.757,12.656 C33.823,12.656 33.845,12.793 33.867,12.929 C33.889,13.066 33.91,13.203 33.973,13.203 C33.98,13.203 33.988,13.201 33.996,13.198 C34.064,13.228 34.139,13.239 34.219,13.239 C34.429,13.239 34.675,13.162 34.926,13.144 C34.937,13.14 34.945,13.139 34.953,13.139 C35.009,13.139 34.982,13.244 34.948,13.349 C34.914,13.454 34.873,13.559 34.902,13.559 C34.904,13.559 34.907,13.559 34.909,13.558 C34.929,13.56 34.949,13.561 34.969,13.561 C35.121,13.561 35.295,13.508 35.461,13.454 C35.627,13.401 35.785,13.348 35.904,13.348 C35.985,13.348 36.048,13.372 36.084,13.437 C36.205,13.618 36.304,13.788 36.396,13.955" id="Fill-18" fill="#D22832"></path>
                <path d="M38.856,14.689 C38.561,14.486 38.359,14.228 38.305,13.744 C38.306,13.858 38.249,13.927 38.168,13.927 C38.133,13.927 38.093,13.914 38.052,13.887 L38.138,13.569 C38.484,13.673 38.856,13.801 38.782,14.309 C38.782,14.309 38.979,14.318 39.078,14.323 C39.096,14.45 38.957,14.568 38.856,14.689" id="Fill-19" fill="#D22832"></path>
                <g id="Group-23" transform="translate(0.000000, 8.000000)">
                    <mask id="mask-4" fill="white">
                        <use xlink:href="#path-3"></use>
                    </mask>
                    <g id="Clip-21"></g>
                    <polyline id="Fill-20" fill="#D84D43" mask="url(#mask-4)" points="39.041 6.819 38.824 6.728 38.856 6.689 39.046 6.805 39.041 6.819"></polyline>
                    <path d="M9.139,7.494 C8.592,7.494 8.033,7.331 7.446,6.875 C7.012,6.557 6.555,6.439 6.154,6.439 C5.238,6.439 4.624,7.058 5.297,7.317 C4.927,7.219 4.62,7.187 4.355,7.187 C4.105,7.187 3.891,7.215 3.696,7.244 C3.5,7.272 3.322,7.3 3.145,7.3 C2.719,7.3 2.292,7.138 1.614,6.425 C1.516,6.311 -0.179,4.287 0.925,2.842 C1.904,2.394 3.698,1.54 4.978,1.54 C5.088,1.54 5.194,1.547 5.296,1.56 C5.851,1.649 6.382,1.686 6.895,1.686 C8.093,1.686 9.196,1.486 10.293,1.285 C11.389,1.084 12.481,0.884 13.656,0.884 C13.822,0.884 13.989,0.888 14.159,0.896 C15.56,0.952 16.972,1.015 18.416,1.015 C18.545,1.015 18.675,1.014 18.805,1.013 C19.807,1.004 20.773,0.984 21.722,0.984 C23.528,0.984 25.274,1.056 27.093,1.407 C27.519,1.499 27.938,1.59 28.354,1.681 L28.984,1.818 L29.034,1.878 L29.011,1.823 L29.16,1.856 C29.218,2.049 29.329,2.1 29.459,2.1 C29.525,2.1 29.597,2.087 29.669,2.073 L29.851,2.059 L30.669,2.295 L30.599,2.336 L30.737,2.315 L31.095,2.413 C31.151,2.466 31.202,2.54 31.245,2.651 C31.261,2.67 31.278,2.678 31.295,2.678 C31.351,2.678 31.41,2.59 31.478,2.515 C32.308,2.786 33.108,3.047 33.985,3.333 C33.985,3.333 34.288,3.874 34.304,4.198 L34.098,4.156 C34.138,4.004 34.211,3.837 34.148,3.721 L33.891,3.821 C33.814,3.476 33.626,3.394 33.407,3.394 C33.288,3.394 33.16,3.418 33.037,3.438 L33.08,3.753 C33.09,3.754 33.1,3.755 33.11,3.755 C33.258,3.755 33.319,3.637 33.245,3.495 C33.49,3.893 33.771,4.062 34.098,4.156 L34.086,4.207 C34.015,4.202 33.942,4.2 33.869,4.2 C33.299,4.2 32.667,4.343 32.134,4.488 L31.883,4.565 C31.767,4.554 31.671,4.498 31.575,4.436 C31.431,4.307 31.291,4.148 31.109,4.035 C31.079,4.008 31.045,3.997 31.007,3.997 C30.758,3.997 30.354,4.509 29.992,4.559 C29.989,4.561 29.986,4.562 29.984,4.562 C29.959,4.562 29.967,4.455 29.969,4.347 C29.972,4.24 29.969,4.133 29.921,4.133 C29.912,4.133 29.902,4.137 29.889,4.146 C29.598,4.241 29.335,4.42 29.09,4.42 C29.061,4.42 29.033,4.418 29.005,4.412 C28.995,4.419 28.985,4.423 28.976,4.423 C28.918,4.423 28.864,4.307 28.808,4.192 C28.753,4.077 28.697,3.962 28.636,3.962 C28.625,3.962 28.613,3.966 28.601,3.976 C28.27,4.108 27.431,4.81 27.882,4.818 C28.5,4.787 28.931,4.702 29.454,4.702 C29.506,4.702 29.559,4.703 29.614,4.705 C29.128,4.823 28.634,4.937 28.087,4.937 C28.002,4.937 27.916,4.934 27.828,4.928 C27.452,4.895 26.984,4.599 26.507,4.599 C26.465,4.599 26.423,4.601 26.381,4.606 C25.662,4.878 24.933,5.385 24.128,5.385 C24.114,5.385 24.1,5.385 24.087,5.384 C23.915,5.377 23.744,5.373 23.575,5.373 C22.23,5.373 20.964,5.601 19.705,5.829 C18.447,6.057 17.196,6.285 15.882,6.285 C15.615,6.285 15.344,6.275 15.071,6.254 C14.532,6.311 14.068,6.46 13.601,6.46 C13.555,6.46 13.509,6.458 13.462,6.455 C13.394,6.45 13.326,6.448 13.259,6.448 C12.538,6.448 11.854,6.71 11.177,6.971 C10.5,7.233 9.83,7.494 9.139,7.494 M32.208,3.869 C32.17,4.069 32.133,4.268 32.133,4.445 C32.133,4.268 32.17,4.069 32.208,3.869 C32.306,3.931 32.418,4.099 32.513,4.16 C32.418,4.099 32.306,3.931 32.208,3.869 M30.38,2.376 L30.543,2.573 C30.518,2.482 30.514,2.39 30.595,2.338 L30.599,2.336 L30.38,2.376 M27.85,2.51 C27.851,2.51 27.851,2.51 27.852,2.51 C27.851,2.51 27.851,2.51 27.85,2.51 M27.789,2.449 C27.806,2.492 27.827,2.51 27.85,2.51 C27.827,2.51 27.806,2.492 27.789,2.449 M28.16,2.259 C28.203,2.259 28.242,2.309 28.27,2.455 C28.242,2.309 28.203,2.259 28.16,2.259 M27.788,2.446 C27.789,2.447 27.789,2.448 27.789,2.448 C27.789,2.448 27.789,2.447 27.788,2.446 M27.519,1.93 C27.618,2.114 27.703,2.315 27.787,2.443 C27.788,2.443 27.788,2.443 27.788,2.443 C27.788,2.443 27.788,2.443 27.787,2.443 C27.703,2.315 27.618,2.114 27.519,1.93 M28,2.386 C27.999,2.386 27.999,2.387 27.998,2.388 C27.999,2.387 27.999,2.386 28,2.386 M29.872,2.137 C29.923,2.334 30.031,2.385 30.16,2.385 C30.178,2.385 30.196,2.384 30.214,2.382 C30.23,2.383 30.246,2.384 30.262,2.384 C30.301,2.384 30.34,2.381 30.38,2.376 C30.372,2.37 30.364,2.365 30.356,2.361 C30.362,2.36 30.368,2.358 30.375,2.357 L30.556,2.344 L29.872,2.137 M28.006,2.379 C28.004,2.381 28.003,2.383 28.001,2.384 C28.003,2.383 28.004,2.381 28.006,2.379 M28.006,2.378 C28.006,2.379 28.006,2.379 28.006,2.379 C28.006,2.379 28.006,2.379 28.006,2.378 M28.009,2.375 L28.009,2.376 L28.009,2.375 M27.073,1.5 C27.01,1.5 26.943,1.525 26.87,1.582 C27.024,1.824 27.213,1.955 27.389,1.955 C27.434,1.955 27.477,1.947 27.519,1.93 C27.397,1.701 27.253,1.5 27.073,1.5 M5.497,7.374 C5.421,7.358 5.354,7.339 5.297,7.317 C5.362,7.334 5.429,7.353 5.497,7.374 M33.245,3.495 C33.238,3.483 33.23,3.47 33.223,3.458 C33.231,3.47 33.239,3.483 33.245,3.495" id="Fill-22" fill="#D22832" mask="url(#mask-4)"></path>
                </g>
                <path d="M30.16,10.385 C30.031,10.385 29.923,10.334 29.872,10.137 L30.556,10.344 L30.375,10.357 C30.368,10.358 30.362,10.36 30.356,10.361 C30.308,10.37 30.26,10.378 30.214,10.382 C30.196,10.384 30.178,10.385 30.16,10.385" id="Fill-24" fill="#D22832"></path>
                <path d="M37.257,20.672 C37.229,20.672 37.207,20.658 37.193,20.621 C37.187,20.494 37.161,20.399 37.121,20.324 L37.464,20.581 C37.385,20.621 37.311,20.672 37.257,20.672" id="Fill-25" fill="#D22832"></path>
                <polyline id="Fill-26" fill="#D22832" points="36.804 20.083 36.663 20.049 36.743 20.037 36.804 20.083"></polyline>
                <path d="M36.425,20.03 C36.299,20.014 36.178,19.983 36.075,19.9 C36.082,19.9 36.088,19.9 36.094,19.9 C36.246,19.9 36.352,19.951 36.425,20.03" id="Fill-27" fill="#D22832"></path>
                <path d="M36.537,20.264 C36.518,20.173 36.481,20.092 36.425,20.03 L36.663,20.049 L36.66,20.05 C36.56,20.078 36.538,20.168 36.537,20.264" id="Fill-28" fill="#D22832"></path>
                <path d="M36.55,20.521 C36.547,20.462 36.542,20.365 36.537,20.264 L36.55,20.521" id="Fill-29" fill="#D22832"></path>
                <g id="Group-35" transform="translate(0.000000, 17.000000)">
                    <mask id="mask-6" fill="white">
                        <use xlink:href="#path-5"></use>
                    </mask>
                    <g id="Clip-31"></g>
                    <path d="M36.919,5.438 C36.83,5.334 36.743,5.224 36.609,5.17 C36.231,5.105 35.875,5.068 35.504,5.068 C35.339,5.068 35.172,5.075 34.998,5.091 C34.439,4.983 33.912,4.88 33.334,4.768 C32.895,4.681 33.88,4.126 34.215,4.126 C34.216,4.126 34.218,4.126 34.219,4.126 C34.227,4.123 34.235,4.121 34.242,4.121 C34.308,4.121 34.331,4.26 34.353,4.398 C34.376,4.537 34.397,4.676 34.461,4.676 C34.468,4.676 34.476,4.674 34.484,4.67 C34.553,4.701 34.63,4.712 34.711,4.712 C34.924,4.712 35.173,4.635 35.428,4.616 C35.438,4.613 35.447,4.611 35.455,4.611 C35.512,4.611 35.484,4.717 35.45,4.824 C35.415,4.931 35.374,5.037 35.403,5.037 C35.405,5.037 35.408,5.037 35.411,5.036 C35.431,5.038 35.451,5.039 35.472,5.039 C35.626,5.039 35.803,4.985 35.971,4.931 C36.139,4.877 36.299,4.822 36.42,4.822 C36.501,4.822 36.565,4.847 36.602,4.914 C36.725,5.097 36.825,5.269 36.919,5.438" id="Fill-30" fill="#D84D43" mask="url(#mask-6)"></path>
                    <path d="M39.414,6.183 C39.115,5.977 38.91,5.716 38.855,5.224 C38.856,5.34 38.798,5.41 38.716,5.41 C38.681,5.41 38.64,5.397 38.598,5.369 L38.686,5.047 C39.036,5.152 39.414,5.283 39.339,5.798 C39.339,5.798 39.539,5.807 39.64,5.811 C39.658,5.941 39.516,6.06 39.414,6.183" id="Fill-32" fill="#D84D43" mask="url(#mask-6)"></path>
                    <polyline id="Fill-33" fill="#D84D43" mask="url(#mask-6)" points="39.602 6.315 39.382 6.222 39.414 6.183 39.607 6.3 39.602 6.315"></polyline>
                    <path d="M9.27,7 C8.716,7 8.148,6.834 7.553,6.371 C7.113,6.049 6.649,5.929 6.243,5.929 C5.313,5.929 4.69,6.557 5.373,6.82 C4.998,6.721 4.687,6.688 4.417,6.688 C4.164,6.688 3.947,6.717 3.749,6.745 C3.55,6.774 3.37,6.803 3.19,6.803 C2.758,6.803 2.325,6.638 1.637,5.915 C1.538,5.8 -0.181,3.746 0.939,2.28 C1.931,1.826 3.751,0.96 5.049,0.96 C5.161,0.96 5.269,0.967 5.372,0.98 C5.935,1.071 6.474,1.108 6.994,1.108 C8.209,1.108 9.328,0.905 10.44,0.701 C11.553,0.498 12.66,0.294 13.852,0.294 C14.02,0.294 14.19,0.299 14.362,0.307 C15.783,0.364 17.216,0.427 18.681,0.427 C18.812,0.427 18.943,0.427 19.075,0.426 C20.091,0.416 21.07,0.396 22.033,0.396 C23.865,0.396 25.636,0.469 27.482,0.825 C27.914,0.919 28.339,1.011 28.761,1.103 L29.4,1.242 L29.451,1.303 L29.428,1.247 L29.579,1.281 C29.637,1.477 29.75,1.528 29.882,1.528 C29.949,1.528 30.022,1.515 30.095,1.501 L30.279,1.486 L31.109,1.726 L31.039,1.767 L31.178,1.746 L31.541,1.845 C31.598,1.899 31.651,1.975 31.694,2.087 C31.71,2.106 31.727,2.115 31.744,2.115 C31.801,2.115 31.861,2.026 31.93,1.949 C32.772,2.224 33.583,2.488 34.473,2.778 C34.473,2.778 34.78,3.328 34.797,3.656 L34.588,3.614 C34.628,3.459 34.702,3.29 34.639,3.173 L34.378,3.273 C34.3,2.924 34.109,2.841 33.887,2.841 C33.766,2.841 33.637,2.865 33.512,2.885 L33.555,3.205 C33.565,3.206 33.576,3.206 33.585,3.206 C33.736,3.206 33.798,3.087 33.722,2.943 C33.971,3.347 34.256,3.519 34.588,3.614 L34.576,3.666 C34.503,3.66 34.43,3.658 34.355,3.658 C33.777,3.658 33.136,3.803 32.596,3.95 L32.341,4.029 C32.224,4.018 32.126,3.961 32.029,3.898 C31.882,3.767 31.74,3.606 31.556,3.491 C31.525,3.464 31.491,3.452 31.452,3.452 C31.199,3.452 30.79,3.972 30.423,4.022 C30.42,4.025 30.417,4.026 30.414,4.026 C30.389,4.026 30.397,3.917 30.399,3.808 C30.402,3.699 30.399,3.59 30.351,3.59 C30.342,3.59 30.331,3.594 30.318,3.603 C30.022,3.7 29.756,3.881 29.508,3.881 C29.479,3.881 29.45,3.879 29.422,3.874 C29.412,3.881 29.402,3.884 29.392,3.884 C29.333,3.884 29.278,3.767 29.222,3.65 C29.166,3.534 29.109,3.417 29.047,3.417 C29.036,3.417 29.024,3.421 29.011,3.431 C28.676,3.565 27.825,4.277 28.282,4.285 C28.909,4.254 29.347,4.168 29.877,4.168 C29.93,4.168 29.984,4.169 30.039,4.171 C29.547,4.29 29.045,4.406 28.49,4.406 C28.404,4.406 28.317,4.403 28.228,4.397 C27.846,4.363 27.372,4.062 26.888,4.062 C26.845,4.062 26.802,4.065 26.76,4.07 C26.03,4.346 25.291,4.86 24.474,4.86 C24.46,4.86 24.446,4.86 24.432,4.859 C24.258,4.852 24.085,4.848 23.914,4.848 C22.549,4.848 21.265,5.079 19.988,5.31 C18.712,5.542 17.443,5.773 16.111,5.773 C15.839,5.773 15.565,5.763 15.288,5.742 C14.741,5.8 14.27,5.95 13.796,5.95 C13.75,5.95 13.703,5.949 13.656,5.946 C13.586,5.941 13.518,5.938 13.449,5.938 C12.718,5.938 12.024,6.204 11.337,6.469 C10.65,6.735 9.971,7 9.27,7 M32.671,3.323 C32.632,3.526 32.595,3.728 32.595,3.907 C32.595,3.728 32.632,3.526 32.671,3.323 C32.77,3.386 32.883,3.556 32.979,3.618 C32.883,3.556 32.77,3.386 32.671,3.323 M30.816,1.808 L30.982,2.008 C30.995,2.043 31.007,2.077 31.019,2.109 L30.982,2.008 C30.956,1.915 30.953,1.822 31.035,1.769 L31.039,1.767 L30.994,1.775 L30.301,1.565 C30.353,1.766 30.462,1.817 30.593,1.817 C30.611,1.817 30.63,1.816 30.648,1.814 C30.664,1.815 30.681,1.816 30.697,1.816 C30.736,1.816 30.776,1.813 30.816,1.808 C30.808,1.802 30.8,1.797 30.792,1.793 C30.799,1.791 30.805,1.79 30.811,1.789 L30.992,1.776 L30.816,1.808 M28.25,1.944 C28.295,1.944 28.348,1.88 28.403,1.817 C28.348,1.88 28.295,1.944 28.25,1.944 M28.189,1.883 C28.205,1.922 28.223,1.94 28.244,1.943 C28.223,1.94 28.205,1.922 28.189,1.883 M28.675,1.886 C28.675,1.887 28.676,1.887 28.676,1.888 C28.676,1.887 28.675,1.887 28.675,1.886 M28.189,1.882 L28.189,1.883 L28.189,1.882 M28.564,1.689 C28.608,1.689 28.646,1.739 28.674,1.882 C28.646,1.739 28.608,1.689 28.564,1.689 M28.187,1.877 C28.187,1.878 28.187,1.878 28.188,1.879 C28.187,1.878 28.187,1.878 28.187,1.877 M27.914,1.355 C28.015,1.542 28.101,1.746 28.186,1.876 C28.187,1.876 28.187,1.876 28.187,1.877 C28.187,1.876 28.187,1.876 28.186,1.876 C28.101,1.746 28.015,1.542 27.914,1.355 M28.407,1.812 C28.406,1.813 28.405,1.814 28.404,1.815 C28.405,1.814 28.406,1.813 28.407,1.812 M28.564,1.689 C28.564,1.689 28.564,1.689 28.563,1.689 C28.564,1.689 28.564,1.689 28.564,1.689 M27.462,0.92 C27.398,0.92 27.33,0.945 27.256,1.003 C27.412,1.248 27.603,1.381 27.782,1.381 C27.827,1.381 27.872,1.372 27.914,1.355 C27.791,1.124 27.644,0.92 27.462,0.92 M5.576,6.878 C5.499,6.862 5.431,6.842 5.373,6.82 C5.439,6.837 5.507,6.856 5.576,6.878 M33.722,2.943 C33.715,2.931 33.707,2.919 33.7,2.906 C33.708,2.918 33.716,2.931 33.722,2.943" id="Fill-34" fill="#D22832" mask="url(#mask-6)"></path>
                </g>
                <path d="M30.593,18.817 C30.462,18.817 30.353,18.766 30.301,18.565 L30.994,18.775 L30.995,18.776 L30.992,18.776 L30.811,18.789 C30.805,18.79 30.799,18.791 30.792,18.793 C30.743,18.802 30.695,18.81 30.648,18.814 C30.63,18.816 30.611,18.817 30.593,18.817" id="Fill-36" fill="#D22832"></path>
            </g>
        </g>
    </g>
</svg>