<?xml version="1.0" encoding="UTF-8" standalone="no"?>
<svg width="88px" height="69px" viewBox="0 0 88 69" version="1.1" xmlns="http://www.w3.org/2000/svg" xmlns:xlink="http://www.w3.org/1999/xlink">
    <!-- Generator: Sketch 49 (51002) - http://www.bohemiancoding.com/sketch -->
    <title>logo_rappi</title>
    <desc>Created with Sketch.</desc>
    <defs>
        <polygon id="path-1" points="0 29.9983876 0 59.8966974 87.3661157 59.8966974 87.3661157 29.9983876 87.3661157 0.100077852 0 0.100077852 0 29.9983876"></polygon>
    </defs>
    <g id="Landing" stroke="none" stroke-width="1" fill="none" fill-rule="evenodd">
        <g id="desktop-1280" transform="translate(-536.000000, -3408.000000)">
            <g id="Group-9-Copy-3" transform="translate(536.000000, 3408.366667)">
                <g id="logo_rappi">
                    <path d="M9.87729359,22.8291555 C9.69326953,23.4715444 9.52661011,24.0956438 9.38019231,24.6905625 C9.19575725,25.4399134 9.02580985,26.120525 8.87250784,26.7311643 C8.72115807,27.3295764 8.61460701,27.810957 8.55490965,28.1624625 C8.43294618,28.7863565 8.02492857,29.1797837 7.37308679,29.3080149 C6.81186992,29.4187786 6.20893683,29.3728497 5.58730335,29.1707418 C4.97512281,28.9708943 4.41770767,28.6239098 3.93047032,28.1390357 C3.41929238,27.630221 3.1598503,26.9899899 3.1598503,26.236529 C3.1598503,25.6231155 3.31356331,24.6536755 3.62941477,23.2728272 C3.93684078,21.9262971 4.3811289,20.3287505 4.95056572,18.5247804 C5.51548156,16.7341677 6.20030588,14.761997 6.98582455,12.6627253 C7.66150418,10.8586525 8.41804753,9.04307174 9.23983671,7.25287007 C9.50893722,6.66637687 10.0649139,6.26277748 10.705967,6.18828421 C12.1573013,6.01967255 13.4163917,6.06108053 14.4829298,6.31291915 C15.1252159,6.46437167 15.4706591,7.16327265 15.2012504,7.76579475 C14.5133436,9.3031303 13.8786609,10.8365614 13.3122039,12.3294065 C12.8535308,13.5383552 12.4132499,14.7344602 11.9987591,15.8979936 C11.9579676,16.0123536 12.0749991,16.1194184 12.1853519,16.0686603 C12.7385543,15.8138419 13.285078,15.5136084 13.8188608,15.1708366 C14.6940797,14.6085922 15.491209,13.9370226 16.1882605,13.1747253 C16.8830515,12.4143802 17.4526938,11.555704 17.8810558,10.6224318 C18.3047941,9.69943449 18.5197457,8.69516249 18.5197457,7.63746083 C18.5197457,6.27736788 18.1431694,5.27319863 17.4008054,4.65290089 C16.6495023,4.02530795 15.5906704,3.70729876 14.2543125,3.70729876 C12.830926,3.70729876 11.5296056,4.04503583 10.3860055,4.71126252 C9.21373838,5.3935181 8.1994997,6.23369941 7.37103181,7.20879061 C6.5375292,8.18871101 5.8808582,9.23654873 5.41971918,10.323123 C4.96269014,11.4004497 4.73078489,12.3447161 4.73078489,13.1299265 C4.73078489,13.6930956 4.43353106,14.0997775 3.8939943,14.2748624 C3.42093636,14.4287809 2.90009998,14.406587 2.3648787,14.2065341 C1.84979628,14.0144956 1.37293662,13.636378 0.946732374,13.0826618 C0.5177539,12.5258632 0.300233557,11.7717858 0.300233557,10.8416988 C0.300233557,10.0299791 0.607762317,9.07338279 1.24008173,7.91745277 C1.85688599,6.79111456 2.76775884,5.69457365 3.94762946,4.65844936 C5.12585608,3.6236608 6.61346096,2.72583711 8.3694471,1.99035737 C10.1363247,1.25045941 12.1786732,0.875424336 14.4389531,0.875424336 C15.7264022,0.875424336 17.0171394,1.02626036 18.2750995,1.32382243 C19.5436428,1.62446699 20.6930996,2.08159878 21.6915149,2.68247689 C22.7022601,3.29054746 23.5322692,4.05418052 24.1583209,4.95231246 C24.7957778,5.86616504 25.118719,6.93773786 25.118719,8.13733635 C25.118719,9.42982023 24.8352336,10.6415431 24.2756607,11.7385978 C23.7206088,12.8257885 22.9575922,13.8184498 22.0073664,14.6893532 C21.0660797,15.5530641 19.9504274,16.3154642 18.6911316,16.9548733 C17.6525413,17.4815664 16.5479859,17.930581 15.4018171,18.2924641 C15.3289678,18.3153772 15.3027667,18.3530862 15.305952,18.4292235 C15.3309201,19.0010236 15.3717115,19.5645009 15.4282237,20.1088669 C15.4930585,20.7330691 15.5791624,21.3421672 15.6841723,21.9193102 C15.7871271,22.4865893 15.9111455,23.0393807 16.0522204,23.5624775 C16.1616484,23.9671044 16.2836119,24.3615591 16.41472,24.7347447 C16.4982552,24.9733287 16.5861059,25.2059532 16.6758061,25.4258367 C16.8550009,25.8672479 17.0525879,26.2893421 17.2631213,26.6811254 C17.4693392,27.0652024 17.6929218,27.4300653 17.9280122,27.7655418 C18.1565268,28.0920792 18.4019949,28.399608 18.658149,28.6799082 C18.9072134,28.9521939 19.1706627,29.2035188 19.441921,29.4268958 C19.706295,29.6447244 19.9847457,29.8413867 20.2697723,30.0119506 C20.5471955,30.1774797 20.8380789,30.3216371 21.1343053,30.440518 C21.4265244,30.557344 21.7293267,30.6512569 22.0335674,30.7195852 C22.3376027,30.7879135 22.6526322,30.832815 22.9697166,30.8531594 C23.2869038,30.8730927 23.6166264,30.8685718 23.9458353,30.8391855 C24.2802844,30.8097991 24.6221314,30.7542118 24.962951,30.6742728 C25.310552,30.5925871 25.6657564,30.4836728 26.0185976,30.3502014 C26.3798643,30.2136475 26.7455492,30.0487348 27.1060966,29.8601898 C27.2439862,29.7882653 27.3830061,29.7120252 27.5216149,29.6318808 C27.971657,29.3721304 28.5453065,29.4959434 28.8478006,29.9183459 C29.1505001,30.3408512 29.0828911,30.9239537 28.6919298,31.2661089 C28.5001996,31.4341041 28.3077501,31.5975783 28.1164308,31.755093 C27.6540588,32.1346491 27.1896318,32.4865655 26.7365073,32.8010813 C26.30496,33.1005956 25.8673506,33.3777105 25.4355979,33.6244117 C25.2187968,33.7485329 24.991618,33.8710101 24.761254,33.9881443 C24.3172742,34.2132681 23.8676431,34.4118826 23.4253072,34.5786448 C22.9835878,34.7444822 22.5404299,34.881447 22.1081634,34.9859431 C21.6762052,35.0905419 21.2416783,35.16596 20.8163988,35.2098339 C20.5139048,35.2406587 20.2105887,35.2563794 19.9147734,35.2563794 C19.7950704,35.2563794 19.6756757,35.2539134 19.5559727,35.2487759 C19.1454891,35.231103 18.7365468,35.1823999 18.3408591,35.1042076 C18.1442996,35.0656766 17.9472264,35.0187202 17.7541604,34.9643658 C17.5676703,34.9128883 17.3758373,34.8512387 17.1844153,34.7813692 C16.8154424,34.6468703 16.4505796,34.4813411 16.1013346,34.2895081 C15.7578435,34.1011686 15.421134,33.8832373 15.100967,33.6418791 C14.8426552,33.4468608 14.5888644,33.2327312 14.3475062,33.0049359 C14.0571365,32.731109 13.7748841,32.4282039 13.5074276,32.1045435 C13.2438756,31.7857123 12.9911122,31.4407828 12.7557135,31.0792079 C12.5205202,30.718044 12.2976569,30.333556 12.0928775,29.9360188 C11.8875843,29.5389954 11.6943128,29.1169011 11.5178922,28.6814494 C11.3436294,28.2513407 11.1801552,27.7934897 11.0325044,27.3208427 C10.8877306,26.8565185 10.7544647,26.3645547 10.6371249,25.8584114 C10.5202989,25.3529875 10.4187826,24.8284521 10.3346309,24.2990875 C10.2597266,23.8314753 10.1961248,23.3458819 10.1456749,22.8528906 C10.1303652,22.7026711 9.91890707,22.6839707 9.87729359,22.8291555" id="Fill-1" fill="#FFFFFE"></path>
                    <path d="M87.0658821,3.92451086 C87.0658821,6.04669562 85.345139,7.76692499 83.2235708,7.76692499 C81.101386,7.76692499 79.3807456,6.04669562 79.3807456,3.92451086 C79.3807456,1.80242884 81.101386,0.0820967188 83.2235708,0.0820967188 C85.345139,0.0820967188 87.0658821,1.80242884 87.0658821,3.92451086" id="Fill-2" fill="#FFFFFE"></path>
                    <g id="Group-6" transform="translate(0.000000, 8.528195)">
                        <mask id="mask-2" fill="white">
                            <use xlink:href="#path-1"></use>
                        </mask>
                        <g id="Clip-4"></g>
                        <path d="M68.857467,5.93274661 C68.7372502,6.60811799 68.5461365,7.38695795 68.2897769,8.24717539 C68.032287,9.10564608 67.7028727,10.011176 67.3138637,10.9298578 C66.8904337,11.8567595 66.4524133,12.7229364 66.0123379,13.5042424 C65.5768862,14.2769174 65.143695,14.9417056 64.7261217,15.4800093 C64.3188233,16.0045447 63.9420415,16.3923207 63.6048182,16.6330624 C63.3509246,16.8147232 63.2103635,16.8342456 63.1615576,16.8342456 C63.1391582,16.8342456 63.1208688,16.8306493 63.1013465,16.8218129 C63.0594247,16.8030098 62.9173224,16.7053979 62.8557755,16.2438479 C62.7983387,15.8213426 62.8288552,15.2664962 62.946606,14.5938991 C63.0666172,13.9005466 63.2574227,13.1154389 63.5141933,12.2598452 C63.7689089,11.4057927 64.0981178,10.5005711 64.4931889,9.56914833 C64.8844584,8.64563731 65.3124094,7.78377589 65.7657395,7.00709366 C66.2179393,6.23123343 66.6583229,5.57353494 67.0748687,5.05167106 C67.4792901,4.54223986 67.8574077,4.16032058 68.19833,3.91639366 C68.4533538,3.73452734 68.5935039,3.71490221 68.6421044,3.71490221 C68.6646065,3.71490221 68.6835123,3.71870394 68.7006715,3.72661564 C68.7425932,3.74541877 68.88449,3.84333888 68.9473726,4.30509439 C69.0042958,4.72801066 68.9740875,5.27556186 68.857467,5.93274661 M51.65281,5.93284936 C51.5325933,6.60852899 51.341685,7.3872662 51.0853255,8.24717539 C50.8266026,9.10996155 50.4967773,10.0153887 50.1094123,10.9298578 C49.6853658,11.8583008 49.2474481,12.7244777 48.8082974,13.5042424 C48.371921,14.2774311 47.9390381,14.9422193 47.5211565,15.4800093 C47.1148856,16.0042364 46.7377956,16.3919097 46.3997503,16.6331651 C46.1460622,16.8147232 46.0059121,16.8342456 45.9574144,16.8342456 C45.9347068,16.8342456 45.9162119,16.8306493 45.896895,16.8218129 C45.8548705,16.8030098 45.7131792,16.7058089 45.6510159,16.2436424 C45.5938872,15.8231921 45.6244038,15.2680375 45.7418463,14.5938991 C45.861652,13.9030125 46.0527658,13.1179049 46.3096391,12.2598452 C46.5645602,11.4053817 46.8939746,10.5000573 47.2890458,9.56904558 C47.6813427,8.64337682 48.1088827,7.78141265 48.5605688,7.00719641 C49.0145154,6.23041144 49.4547963,5.57240469 49.8696981,5.05187656 C50.2762772,4.54121237 50.6543947,4.15898484 50.9937758,3.91629091 C51.2483886,3.73452734 51.3890525,3.71490221 51.4374474,3.71490221 C51.4602578,3.71490221 51.4791637,3.71870394 51.49622,3.72661564 C51.53845,3.74541877 51.6805524,3.84333888 51.7430239,4.30509439 C51.7997416,4.72688041 51.7694305,5.27463712 51.65281,5.93284936 M33.0382267,5.89185238 C32.9637335,6.57688219 32.8187541,7.36065412 32.6076043,8.22097431 C32.3960434,9.07810926 32.1054683,9.98117317 31.7445098,10.9054034 C31.3845789,11.8251127 31.0011184,12.6901594 30.6046087,13.4766028 C30.2155997,14.2446541 29.822378,14.8998866 29.4355268,15.4242164 C29.0584367,15.9342641 28.7040543,16.3142312 28.3820379,16.5540481 C28.1434539,16.73201 28.011832,16.7512241 27.9662113,16.7512241 C27.9454559,16.7512241 27.9276803,16.7475251 27.9083634,16.7385859 C27.8645922,16.7191663 27.7158112,16.618883 27.6382354,16.1501405 C27.5654889,15.7213675 27.5588102,15.1678569 27.6177883,14.5049181 C27.6774857,13.8305743 27.814656,13.0561525 28.0247784,12.2030248 C28.2349008,11.3490751 28.5254759,10.4460112 28.8880783,9.51880116 C29.2529412,8.58717294 29.6366072,7.72202353 30.0289042,6.94688255 C30.4159609,6.17944777 30.8095936,5.51620081 31.1996301,4.9757393 C31.5747679,4.45449193 31.9285339,4.06846268 32.2503448,3.82844023 C32.488826,3.65099213 32.6208589,3.63167525 32.6666851,3.63167525 C32.6881597,3.63167525 32.7059354,3.63537423 32.7226835,3.64287493 C32.7682015,3.66352755 32.9242777,3.76781812 33.0195263,4.24272555 C33.1048083,4.66451157 33.1109733,5.21946073 33.0382267,5.89185238 M86.2080279,10.8950258 C86.0209214,10.6045534 85.660374,10.4167276 85.2891406,10.4167276 C84.9370187,10.4167276 84.6207562,10.581743 84.422039,10.8697494 C84.194141,11.199472 83.9132243,11.590947 83.5863787,12.0333856 C83.2278862,12.518568 82.8409322,12.9839197 82.4365108,13.4160834 C82.0344527,13.8461922 81.6427722,14.2201997 81.2718471,14.5276257 C80.8883866,14.8458404 80.640247,14.9125248 80.4998914,14.9125248 C80.4015603,14.9125248 80.2188719,14.9125248 80.1772585,14.4288836 C80.1342065,13.9224322 80.2093163,13.2639117 80.40043,12.4714061 C80.5958593,11.6571176 80.8787282,10.7532317 81.2418443,9.78492194 C81.6113309,8.79935031 81.9828725,7.85796091 82.3445502,6.98716029 C82.7207155,6.0820414 83.0440677,5.32950527 83.3321768,4.68649993 C83.6195667,4.04647432 83.7995835,3.63013401 83.8682201,3.44806219 C84.0980703,2.92085535 84.0141241,2.40114921 83.6253207,1.94463392 C83.2682667,1.52623862 82.7904823,1.23299202 82.2059413,1.07290856 C81.6349633,0.91642132 81.0124051,0.907379379 80.3634403,1.04588548 C79.6685465,1.19456377 79.1178101,1.59641642 78.7262324,2.23952451 C78.3810973,2.80423486 77.932391,3.69137261 77.3919295,4.8761752 C76.849824,6.06375201 76.3259051,7.38243698 75.8349688,8.79534309 C75.5369957,9.65227255 75.2620385,10.5234842 75.0134879,11.4004497 C74.5994081,12.8590793 73.7479243,14.1555704 72.5740132,15.1149409 C72.1536656,15.458432 71.7114325,15.7820924 71.2514237,16.0829424 C71.0480828,16.2162083 70.8433034,16.3396103 70.6379074,16.4526345 C70.5729699,16.4883913 70.5051553,16.4098908 70.5500568,16.3511182 C70.9047475,15.883917 71.253787,15.3791095 71.59399,14.8396755 C72.2955625,13.7289552 72.9345606,12.3987623 73.4937225,10.8861893 C74.0848394,9.28463542 74.4558672,7.82384813 74.5961201,6.54389966 C74.7374004,5.24833329 74.688389,4.11778236 74.4492913,3.18368815 C74.2021791,2.21918014 73.7700154,1.4605818 73.1639998,0.928545742 C72.5368179,0.378836799 71.7612659,0.100077852 70.8601542,0.100077852 C69.7973151,0.100077852 68.8204772,0.381302783 67.9569718,0.935943694 C67.3669851,1.31488324 66.8203586,1.73810775 66.3251068,2.19965777 C66.2839044,2.23798327 66.2498943,2.2334623 66.220097,2.18609485 C66.1099497,2.01080449 65.9618879,1.84578906 65.7756034,1.69125406 C65.3564889,1.3449888 64.8525034,1.11328905 64.2762851,1.00231976 C63.6982173,0.892686224 63.1110049,0.932347467 62.5382801,1.12037875 C61.9257913,1.32156195 61.4687623,1.73738851 61.1801394,2.35686425 C60.626115,3.55019503 60.0412658,4.94296227 59.4413124,6.49642946 C58.8429003,8.04763618 58.2594895,9.66912344 57.7062871,11.3159898 C57.6451513,11.4987808 57.5842209,11.6814692 57.523496,11.8641575 C57.0566031,13.2687409 56.1796375,14.5012192 55.0055208,15.4027418 C54.6961426,15.6405038 54.3758729,15.8676826 54.0469723,16.0829424 C53.8435286,16.2162083 53.6385437,16.3396103 53.4329423,16.4527373 C53.3680047,16.4884941 53.3002929,16.4100963 53.3452971,16.3511182 C53.6999878,15.8842252 54.0486163,15.3796232 54.3889221,14.839881 C55.090289,13.7298799 55.7295954,12.3998925 56.2893738,10.8861893 C56.8802852,9.28442993 57.2511076,7.82364263 57.3915659,6.54389966 C57.5330517,5.24781954 57.4838348,4.11716586 57.2448398,3.18368815 C56.9980359,2.21959114 56.5658722,1.46089005 55.9595484,0.928545742 C55.332161,0.378734049 54.5568145,0.100077852 53.6561138,0.100077852 C52.5924527,0.100077852 51.6158203,0.381302783 50.7524176,0.935738195 C50.1621227,1.31488324 49.6154962,1.73810775 49.1206554,2.19934952 C49.0795557,2.23767502 49.0456484,2.2332568 49.0159538,2.18568386 C48.9058066,2.01070174 48.757231,1.84568631 48.570741,1.69145956 C48.1522429,1.3451943 47.6479492,1.11349455 47.0712172,1.00231976 C46.4931494,0.892480725 45.9054232,0.932450217 45.3339314,1.12037875 C44.7220591,1.32115095 44.2649273,1.73697751 43.9749687,2.35706975 C43.4208415,3.55225002 42.8358896,4.9449145 42.236861,6.49653221 C41.6747193,7.95423703 41.1279901,9.46722099 40.6093115,10.9984943 C40.2179393,12.1542189 39.6320626,13.0826618 38.7576657,13.9332208 C38.5317199,14.1527962 38.3116309,14.3516161 38.0990425,14.5276257 C37.7154792,14.8458404 37.4676478,14.9125248 37.3270867,14.9125248 C37.2287556,14.9125248 37.0456563,14.9125248 37.0047621,14.4284726 C36.9616073,13.9232542 37.0365116,13.2649392 37.2275226,12.4714061 C37.4225409,11.6575286 37.705718,10.7535399 38.0689369,9.78492194 C38.4345191,8.80941975 38.8058552,7.86803034 39.1717455,6.98716029 C39.5412321,6.09909779 39.8736262,5.32488155 40.1595776,4.68649993 C40.4523105,4.0339389 40.6274981,3.62849002 40.6946962,3.44785669 C40.9257794,2.92085535 40.8417305,2.40114921 40.4526188,1.94463392 C40.0945373,1.52541663 39.6084302,1.23186178 39.0068329,1.07188106 C38.4195177,0.916318571 37.7986034,0.907584877 37.1651538,1.04629648 C36.4869054,1.19538577 35.9442862,1.59693017 35.5534277,2.23839427 C35.4751327,2.36539244 35.3936525,2.50543979 35.3072403,2.66100228 C35.2765182,2.71658967 35.1935995,2.704157 35.1803449,2.64199365 C35.1058516,2.29172117 34.9859431,1.96056006 34.8217497,1.65282581 C34.5757678,1.19425552 34.2116241,0.817884708 33.7395937,0.534091044 C33.2600625,0.246084658 32.6513755,0.100077852 31.9306916,0.100077852 C30.2311149,0.100077852 28.5074948,0.884363528 26.8078153,2.43135752 C25.1391661,3.95050644 23.75616,6.37395226 22.6957869,9.6363464 C22.1982746,11.2094387 21.9065693,12.6634446 21.8281715,13.9582917 C21.7493628,15.2687567 21.8552973,16.3997186 22.1421735,17.3191197 C22.4376806,18.2671878 22.909711,19.0157167 23.5459349,19.5433345 C24.2016812,20.088728 24.9898713,20.3653292 25.8882087,20.3653292 C26.5527914,20.3653292 27.1868576,20.250661 27.7729398,20.0242014 C28.3409381,19.8047289 28.8675285,19.5226819 29.3381204,19.1860751 C29.7002091,18.9272495 30.0373296,18.6343112 30.3435227,18.3122948 C30.561865,18.0827527 30.9465585,18.1755354 31.0365669,18.4790569 C31.1371585,18.8193627 31.2774114,19.1220623 31.4569145,19.3855116 C31.9009971,20.0355039 32.6036998,20.3653292 33.5452947,20.3653292 C34.5884059,20.3653292 35.6425114,19.9740598 36.6781219,19.202515 C37.1608383,18.8433033 37.6324577,18.4515201 38.089384,18.0301451 C38.1921334,17.9355129 38.3539636,18.0368238 38.3136858,18.1706034 C38.0469486,19.0579467 37.8073371,19.8800441 37.5916663,20.6513834 C37.2279336,21.94808 36.9321183,23.0648625 36.7122347,23.9710089 C36.4179606,25.1864308 36.3799434,25.5168726 36.3799434,25.6692499 C36.3799434,26.4143881 36.6113349,27.0494817 37.0683639,27.5576799 C37.5096723,28.046253 38.020953,28.3968338 38.5897733,28.5996609 C38.9640891,28.7325158 39.3294658,28.7999194 39.6750118,28.7999194 C39.8664338,28.7999194 40.0549788,28.779164 40.2362287,28.7383725 C40.6438353,28.6460009 41.1613837,28.3742289 41.3120142,27.6033006 L41.3144802,27.588402 C41.3744858,27.1823366 41.488743,26.6324222 41.6544777,25.9534546 C41.8263774,25.2489024 42.0353695,24.4468411 42.275803,23.5694645 C42.5129484,22.6969171 42.7843094,21.7249084 43.1044763,20.597851 C43.2523326,20.0770146 43.4111831,19.5313129 43.5797948,18.9642393 C43.6144213,18.8489545 43.7699838,18.8305624 43.8301949,18.9347502 C43.9053047,19.0644199 43.9887371,19.1910071 44.0809033,19.3141008 C44.5997874,20.0097138 45.4278443,20.3631715 46.5422636,20.3653292 C46.7659489,20.3752959 46.9906617,20.3804334 47.2103398,20.3804334 L47.210648,20.3804334 C48.8490889,20.3804334 50.3880685,20.0992084 51.7843292,19.5446703 C53.118632,19.0155112 54.3408354,18.3687041 55.4297728,17.6200725 C55.5364267,17.546504 55.6762685,17.6487396 55.6386622,17.7729635 C55.3260988,18.8027173 55.0440518,19.7665061 54.7963232,20.6515889 C54.4305356,21.9573274 54.1345147,23.0741099 53.9163779,23.9711116 C53.622412,25.1886913 53.5846003,25.5183111 53.5846003,25.6692499 C53.5846003,26.4141826 53.8159918,27.0492762 54.2729181,27.5576799 C54.7141237,28.0465613 55.2259182,28.397142 55.7946357,28.5996609 C56.1689516,28.7323103 56.5336089,28.7999194 56.8793605,28.7999194 C57.070577,28.7999194 57.259533,28.779164 57.4412966,28.7383725 C57.8490059,28.6460009 58.3660406,28.3742289 58.5169794,27.6033006 L58.5195481,27.5881965 C58.5792455,27.1808981 58.693811,26.6308809 58.8596484,25.9532491 C59.0312398,25.2491079 59.2398209,24.4472521 59.4802544,23.5694645 C59.7188383,22.6931154 59.9901993,21.7212095 60.3093388,20.597851 C60.4574006,20.0759871 60.6161483,19.5301826 60.7844517,18.963931 C60.81877,18.8485435 60.9746407,18.8301514 61.0349546,18.9342365 C61.1098588,19.0641116 61.1937023,19.1908016 61.2858685,19.313998 C61.8043416,20.0095083 62.6323985,20.3631715 63.747126,20.3653292 C63.9709141,20.3752959 64.1953186,20.3804334 64.4150995,20.3804334 L64.415305,20.3804334 C66.0534376,20.3804334 67.5926226,20.0992084 68.9892944,19.5446703 C70.55242,18.9248863 71.9650179,18.1445051 73.1883514,17.2250013 C73.3963161,17.0685141 73.5990405,16.9102801 73.7963193,16.7504021 C73.8868414,16.6772446 74.0217513,16.7430042 74.0196963,16.8593164 C74.0189771,16.9117186 74.0184633,16.963607 74.0184633,17.0150844 C74.0184633,17.9931553 74.223962,18.7906957 74.6297191,19.3855116 C75.073699,20.0355039 75.7766072,20.3653292 76.7179966,20.3653292 C77.7594639,20.3653292 78.8205562,19.974779 79.8714764,19.2043645 C80.8705082,18.4726865 81.8138499,17.6074343 82.6755058,16.6327541 C83.5252428,15.6719451 84.2721277,14.714424 84.8955079,13.7869058 C85.5256696,12.8479824 85.9500244,12.2060045 86.1922045,11.8239825 C86.3857843,11.519228 86.3913328,11.1804634 86.2080279,10.8950258" id="Fill-3" fill="#FFFFFE" mask="url(#mask-2)"></path>
                        <path d="M86.2302218,41.1591232 C81.633833,45.1830954 77.5570477,45.4355505 72.6612473,41.8312066 C70.4100094,40.1759148 68.3936565,38.2033331 66.1365618,36.5568777 C64.3901314,35.2829915 62.5440341,34.0180444 60.5510052,33.2313955 C57.1023265,31.8664733 53.6037117,32.3303866 50.4543418,34.2439902 C48.3146896,35.5441803 46.3657402,37.1644345 44.3816506,38.7082433 C44.1027889,38.9224757 43.8944132,39.0400209 43.6830578,39.0311844 C43.4717025,39.0400209 43.2633268,38.9224757 42.9844651,38.7082433 C41.0003755,37.1644345 39.0514261,35.5441803 36.9117739,34.2439902 C33.7653838,32.3303866 30.2637892,31.8664733 26.8151105,33.2313955 C24.8220816,34.0180444 22.9759843,35.2829915 21.2295539,36.5568777 C18.9724592,38.2033331 16.9561063,40.1759148 14.7048684,41.8312066 C9.80906803,45.4355505 5.73228266,45.1830954 1.1358939,41.1591232 C0.7572626,40.8273456 0.3786313,40.4957735 0,40.1670783 C0.683899575,43.9532886 2.16030477,47.3492569 4.33807693,50.4311204 C7.11765195,54.3640567 10.7629929,57.1817518 15.3388318,58.728643 C26.0343183,62.3444949 39.5446229,57.3049482 43.6830578,47.792312 C47.8214928,57.3049482 61.3317974,62.3444949 72.0272839,58.728643 C76.6031228,57.1817518 80.2484638,54.3640567 83.0280388,50.4311204 C85.2058109,47.3492569 86.6822161,43.9532886 87.3661157,40.1670783 C86.9874844,40.4957735 86.6088531,40.8273456 86.2302218,41.1591232" id="Fill-5" fill="#FFFFFE" mask="url(#mask-2)"></path>
                    </g>
                </g>
            </g>
        </g>
    </g>
</svg>