<?xml version="1.0" encoding="utf-8"?>
<!-- Generator: Adobe Illustrator 19.2.1, SVG Export Plug-In . SVG Version: 6.00 Build 0)  -->
<svg version="1.1" id="Capa_1" xmlns="http://www.w3.org/2000/svg" xmlns:xlink="http://www.w3.org/1999/xlink" x="0px" y="0px"
	 viewBox="0 0 500 500" style="enable-background:new 0 0 500 500;" xml:space="preserve">
<style type="text/css">
	.st0{fill:#FFFFFF;}
</style>
<g id="Boostrap3-grid-system-layouts" sketch:type="MSPage">
	<g id="Artboard-8-Copy" sketch:type="MSArtboardGroup">
		<path id="logo" sketch:type="MSShapeGroup" class="st0" d="M70.5,183.1v16.7c0,2.8-0.6,4.8-2,6.1c-1.3,1.3-3.4,1.9-6.3,1.9
			c-2.9,0-5-0.6-6.3-1.9c-1.3-1.3-2-3.3-2-6.1v-17.4h-5.6c-0.5,0-0.7,0.2-0.7,0.7v17c0.1,4.6,1.4,7.9,4,9.8
			c2.6,1.9,6.1,2.9,10.5,2.8c4.4,0.1,7.9-0.9,10.5-2.8c2.6-1.9,4-5.2,4.1-9.8v-17.7h-5.6C70.8,182.4,70.5,182.6,70.5,183.1
			L70.5,183.1z M154.5,187.3c0.2,0,0.4,0,0.5-0.1c0.1-0.1,0.2-0.2,0.3-0.4l1.6-4c0.1-0.2,0-0.3-0.2-0.3h-22.5c-1,0-1.8,0.2-2.2,0.5
			s-0.7,0.9-0.7,1.6v26c0,0.6,0.2,1,0.5,1.3c0.3,0.3,0.9,0.4,1.7,0.4h21c0.2,0,0.4,0,0.5-0.1c0.1-0.1,0.2-0.2,0.3-0.4l1.6-4
			c0.1-0.2,0-0.4-0.2-0.4h-19.1v-5.3c0-0.9,0.3-1.6,0.8-2c0.6-0.4,1.5-0.6,2.9-0.6h8.3c0.2,0,0.4,0,0.5-0.1c0.1-0.1,0.2-0.2,0.3-0.4
			l1.5-3.8c0.1-0.2,0-0.4-0.2-0.4h-14.1v-7.5H154.5z M114.9,196.5c1.2-0.6,2.1-1.5,2.6-2.7c0.5-1.1,0.8-2.4,0.8-3.9
			c-0.1-3.2-1.2-5.3-3.4-6.3c-2.2-1-4.7-1.4-7.5-1.3H94.7c-1,0-1.8,0.2-2.3,0.5c-0.5,0.3-0.7,0.9-0.6,1.6v26c0,0.6,0.2,1,0.5,1.3
			s0.9,0.4,1.7,0.4h15.6c3,0,5.4-0.6,7.3-1.9c1.8-1.3,2.8-3.4,2.8-6.3c0-1.8-0.4-3.4-1.2-4.7C117.8,197.9,116.6,197,114.9,196.5
			L114.9,196.5z M97,187.1h9.9c1.6,0,2.7,0.3,3.3,0.9c0.6,0.6,0.9,1.6,0.9,2.9c0,1.3-0.3,2.3-0.9,2.9c-0.6,0.6-1.7,1-3.3,1H97V187.1
			z M108,207.5H97V202c0-0.9,0.3-1.6,0.8-2c0.6-0.4,1.5-0.6,2.9-0.6h7.3c1.7,0,2.9,0.3,3.6,1c0.6,0.7,1,1.7,0.9,3.1
			c0,1.4-0.3,2.4-0.9,3.1C110.9,207.2,109.8,207.5,108,207.5L108,207.5z M196.9,211.7l-6.7-11.5c1.7-0.4,3.1-1.2,4.3-2.5
			c1.1-1.3,1.7-3.3,1.8-6.1c0-3.5-1.1-6-3.2-7.3c-2.1-1.3-5-1.9-8.7-1.9h-12.8c-1,0-1.8,0.2-2.2,0.5s-0.7,0.9-0.7,1.6v27
			c0,0.5,0.2,0.7,0.7,0.7h5.4v-8.7c0-0.9,0.3-1.6,0.8-2c0.6-0.4,1.5-0.6,2.9-0.6h5.5l6,10.9c0.1,0.2,0.2,0.3,0.3,0.4
			c0.1,0.1,0.3,0.1,0.5,0.1h5.7c0.2,0,0.3-0.1,0.3-0.2S197,211.8,196.9,211.7L196.9,211.7z M185.2,196.2h-10.4v-9h10.4
			c1.9,0,3.2,0.4,3.8,1.1s1,1.9,0.9,3.4c0,1.5-0.3,2.7-0.9,3.4C188.4,195.9,187.1,196.2,185.2,196.2L185.2,196.2z"/>
	</g>
</g>
<path class="st0" d="M116,241.3c-12.3-14.5-29.6-14.7-32-14.7c-3,0.1-18.4,1.1-30.3,14c-12.6,13.5-11.8,29.9-11.7,32.7
	c0.2,3.4,1.3,15.9,11.3,26.3c12.7,13.1,29.4,13.5,32,13.3c3.8,0.1,12.8-0.2,22.2-5.8c7.1-4.2,11.5-9.6,14-13.4
	c1-1.5,0.3-3.5-1.3-4.1l-10.9-4.3c-1.1-0.4-2.4-0.1-3.1,0.8c-2.1,2.4-5.5,5.8-10.6,8.1c-4,1.8-7.7,2.5-10.2,2.7
	c-2,0.1-8.4,0-14.4-4.6c-5-3.8-7.1-8.9-8-12.4c-0.5-1.9,0.9-3.7,2.9-3.7h56.7c1.5,0,2.7-1.1,2.9-2.6
	C126.1,267.8,126.4,253.6,116,241.3z M62.7,261.2c0.5-2.1,2.2-7.3,7.2-11.7c1.5-1.3,6.4-5.6,14-5.9c2.1-0.1,9.6,0,15.5,5.9
	c4.5,4.5,5.4,9.9,5.7,11.7H62.7z"/>
<path class="st0" d="M220.4,208.8c3.4,0,8.2,0,11.8,0.1c2.6,0,4.6,2.1,4.6,4.7v10.7c0,2.6,2.1,4.7,4.7,4.7h14.7
	c2.6,0,4.7,2.1,4.7,4.7v7.2c0,2.6-2.1,4.7-4.7,4.7h-14c-2.7,0-4.9,2.2-4.9,4.9v35.2c0.2,1.2,1,5,4.2,7.3c3.2,2.3,7.8,2.5,12,0.6
	c2.2-1,4.8-0.1,5.9,2c1,1.8,2,3.5,2.9,5.3c1.2,2.2,0.5,4.9-1.6,6.2c-1.6,1-3.6,2-5.8,2.8c-5.3,1.9-9.9,2-12.7,1.9
	c-1.8,0.1-10.1,0.4-17.2-5.7c-8.5-7.3-8.5-17.7-8.5-19.1v-74.2C216.5,210.6,218.2,208.8,220.4,208.8z"/>
<path class="st0" d="M208,302.2c-1.9-4.6-2.6-8.7-2.8-11.8c0-3.9,0.1-10.2,0.2-17.9c0.2-12.1,0.4-13.6-0.2-16.7
	c-0.5-2.7-2.5-12.9-11.3-20.5c-10.2-8.7-22.4-8-25.2-7.8c-3.9,0-11.8,0.5-20.3,4.9c-10,5.3-15.1,13.1-17.1,16.5
	c6.2,2.7,12.3,5.3,18.5,8c0.8-1.9,2.2-4.7,4.9-7.3c5-4.8,10.8-5.8,13-6c1.2-0.3,6.1-1.3,11.1,1.5c4.2,2.4,6,6,6.6,7.3
	c0.3,0.9,0.7,2.7,0,4.5c-1.1,2.9-4.7,4.7-8.7,4.3c-7.9,1.6-15.7,3.3-23.6,4.9c-1.4,0-10.2,0.4-16.5,7.8c-5.1,6-5.3,12.8-5.3,14.6
	c0.1,2.3,0.7,9.3,6,15.6c7.4,8.7,18,8.9,19.6,8.9c2.5,0.5,9.3,1.6,16.9-1.6c7.3-3,11.3-8.2,12.7-10.4c0,0.9-0.1,3.7,1.9,6.4
	c1.3,1.8,2.9,2.7,3.8,3.1c6.8,0,13.5,0,20.3,0C211,308.4,209.4,305.6,208,302.2z M185.6,285c-1.3,2.3-4,6-8.5,8.5
	c-5.7,3.2-12,3.1-12,3.1c0,0,0,0,0,0c0,0,0,0,0,0c0,0-7.6,1.5-11.3-1.9c-2-1.8-3.3-5.4-3.3-5.4c-0.2-0.8-0.7-3.1,0.5-5.4
	c1.3-2.7,4.2-4.4,7.5-4.5c9-2.1,18.1-4.2,27.1-6.4V285z"/>
<path class="st0" d="M322.6,254.7l11.7-3.7c1.7-0.6,2.6-2.5,1.7-4.2c-1.7-3.4-4.7-7.8-9.5-11.6c-9.6-7.7-20.2-7.9-23.5-7.9
	c-2.3-0.1-20.5-0.8-30.2,12.4c-2.6,3.5-4,7.1-4.8,10.2c0.2,3,1,7.7,4,12.5c7.3,11.6,21.4,12.9,23.2,13c3,0.6,25.6,4.9,25.8,11.8
	c0,0.7-0.2,1.4-0.8,2.2c-0.9,1.4-2.3,3.2-4.5,4.8c-5.4,3.8-11.5,2.9-13,2.6c-2.4-0.1-6.7-0.7-11.2-3.3c-5-2.9-7.9-6.9-9.5-9.7
	c-0.8-1.4-2.5-1.9-3.9-1.2c-3.3,1.7-6.5,3.3-9.8,5c-1.4,0.7-2,2.3-1.4,3.7c1.5,3.8,4.7,9.8,11.1,14.7c10,7.7,21,7.2,23.8,7
	c2.9,0.4,14.7,1.8,25.8-5.7c7.6-5.2,11.1-12.1,12.5-15.2c0.4-3.8,0.1-8.5-2-13.2c-4.8-10.7-17.4-17.4-32-17.5
	c-0.9,0.1-12.4,0.8-17.2-6.7c-0.7-1.1-1.4-2.5-1.8-4.5c0.7-1.1,2.3-3.4,5.2-5c4.2-2.3,8.3-1.6,9.5-1.3c1.7,0,6.6,0,11.5,3.3
	c3,2,4.9,4.5,5.9,6.4C319.9,254.6,321.3,255.2,322.6,254.7z"/>
</svg>
