<?xml version="1.0" encoding="utf-8"?>
<!-- Generator: Adobe Illustrator 19.2.1, SVG Export Plug-In . SVG Version: 6.00 Build 0)  -->
<svg version="1.1" id="Capa_1" xmlns="http://www.w3.org/2000/svg" xmlns:xlink="http://www.w3.org/1999/xlink" x="0px" y="0px"
	 viewBox="0 0 70.5 40" style="enable-background:new 0 0 70.5 40;" xml:space="preserve">
<style type="text/css">
	.st0{fill-rule:evenodd;clip-rule:evenodd;fill:#FFFFFF;}
</style>
<path class="st0" d="M8.8,20.8c0-1,1-2.3,1.5-2.7c2.8-2.4,7.6-0.9,7.6,2.7L8.8,20.8L8.8,20.8z M21.9,27.5l-3.7-1.5
	c-0.3,0.2-1.1,2.9-5.2,2.5c-3-0.2-4.4-3-4-3.9c0.6-0.6,2.1-0.4,3.1-0.4c1.9,0,9.6,0.2,10.4-0.1c0.5-2.2-0.6-5.7-1.5-7.3
	c-1.1-1.7-2.9-3.1-5.4-3.6c-4.9-0.9-9.8,1.6-11.1,6.7C2.2,27.9,8.9,34.7,17.3,32c1.1-0.3,2.3-1.1,2.9-1.7
	C20.8,29.8,22,28.4,21.9,27.5z"/>
<path class="st0" d="M35.8,23.6c0,2.7,0.1,3.5-2,4.5c-1.4,0.7-4,1-5.2,0c-1.2-1-0.8-2.7,1.8-3.3L35.8,23.6L35.8,23.6z M27.8,19.7
	c0.6-0.5,0.7-1.3,1.4-1.9c2.4-1.8,7.3-0.7,6.4,1.7C35,21.2,28.8,21,25.7,23c-1.4,0.9-2.3,2.1-2.1,4.5c0.4,5.6,8.5,6.3,11.8,3.5
	c0.3-0.3,0.5-0.6,0.8-0.9c0.6,1.5,0.3,2.1,1.7,2.1c0.9,0,3.1,0.1,3.8-0.1c0.1-0.7-0.6-1.4-0.8-2.1c-1.8-5.2,2-13.5-4.4-16.3
	c-3.3-1.4-8.8-0.8-11.2,2.1c-2.1,2.5-0.8,2.6,0.5,3.2C26.2,19.2,27.4,19.8,27.8,19.7z"/>
<path class="st0" d="M53.1,26.9c-0.2,1.2,1.6,3.5,3,4.3c3.1,2,9.3,1.7,11.5-0.5c1.3-1.2,2.3-2.9,1.6-5.5c-1-3.8-5.9-3.9-9.6-5.2
	c-0.9-0.3-2-0.7-1.8-1.8c0.2-0.9,1.2-1.2,2.3-1.4c3.8-0.4,4.5,2.4,4.8,2.6c0.5,0.2,2.6-0.7,3.2-1c0.8-0.3,0.7-0.6,0.4-1.2
	c-2.7-5.6-11-4.8-13.6-2.2c-1.4,1.4-2.2,4.4-0.7,6.4c1.9,2.4,6.5,2.8,9.2,3.8c1,0.4,2.4,1.3,1.2,2.6c-1.3,1.4-5.9,1.5-7.6-1.4
	c-0.4-0.6-0.3-1.3-1.1-1C55.7,25.5,53.4,26.6,53.1,26.9z"/>
<path class="st0" d="M42.7,9.1l-0.1,17.5c0.1,7.1,8,6.3,10.6,4.6c0.1-0.6-1.1-3.1-1.5-3.5c-0.9-0.2-2.8,1.3-4-0.1
	c-0.2-0.2-0.5-0.6-0.5-1.7l0-7.4c0-0.6,0.7-1,1.3-1l3.4,0c0.4,0,0.6-0.1,0.6-0.6l0-3.1c0-0.2-0.1-0.3-0.3-0.3l-5.1,0
	C47.2,8.7,47.5,9,45.7,9C45,9,43,8.9,42.7,9.1z"/>
<g>
	<path class="st0" d="M10.7,2.9v3.8c0,1.3-0.6,1.8-1.9,1.8S6.9,8,6.9,6.7V2.8H5.7c-0.1,0-0.2,0.1-0.2,0.2v3.8c0,2.1,1.3,2.8,3.3,2.8
		c2,0,3.3-0.7,3.3-2.8v-4h-1.3C10.7,2.8,10.7,2.8,10.7,2.9z"/>
	<path class="st0" d="M29,3.9c0.1,0,0.2,0,0.2-0.1l0.4-0.9c0-0.1,0-0.1-0.1-0.1h-5.1c-0.5,0-0.7,0.1-0.7,0.5v5.9
		c0,0.3,0.1,0.4,0.5,0.4H29c0.1,0,0.2,0,0.2-0.1l0.4-0.9c0-0.1,0-0.1-0.1-0.1h-4.3V7.2c0-0.4,0.2-0.6,0.8-0.6h1.9
		c0.1,0,0.2,0,0.2-0.1l0.4-0.9c0-0.1,0-0.1-0.1-0.1h-3.2V3.9H29z"/>
	<path class="st0" d="M18.7,8.4h-2.5V7.2c0-0.4,0.2-0.6,0.8-0.6h1.6c0.8,0,1,0.3,1,0.9C19.7,8.1,19.5,8.4,18.7,8.4L18.7,8.4z
		 M16.2,3.8h2.2c0.7,0,1,0.3,1,0.9c0,0.6-0.2,0.9-1,0.9h-2.2V3.8L16.2,3.8z M20,5.9c0.6-0.3,0.8-0.8,0.8-1.5c0-1.5-1.2-1.7-2.5-1.7
		h-2.9c-0.5,0-0.7,0.1-0.7,0.5v5.9c0,0.3,0.1,0.4,0.5,0.4h3.5c1.3,0,2.3-0.5,2.3-1.9C21.1,6.8,20.8,6.1,20,5.9z"/>
	<path class="st0" d="M35.7,5.9h-2.3v-2h2.3c0.9,0,1.1,0.3,1.1,1C36.8,5.6,36.6,5.9,35.7,5.9L35.7,5.9z M38.3,9.4l-1.5-2.6
		c0.8-0.2,1.4-0.7,1.4-2c0-1.6-1-2.1-2.7-2.1h-2.9c-0.5,0-0.7,0.1-0.7,0.5v6.1c0,0.1,0.1,0.2,0.2,0.2h1.2v-2c0-0.4,0.2-0.6,0.8-0.6
		h1.2l1.4,2.5c0,0.1,0.1,0.1,0.2,0.1h1.3C38.4,9.5,38.4,9.4,38.3,9.4z"/>
</g>
</svg>
